<svg width="600" height="400" viewbox = "0 0 600 400"  xmlns="http://www.w3.org/2000/svg">
<!--<json>{
  "glyph": "0321,0330,0330,0332,0332,0336,0333,0330,01223,01072,01222,01222,01222,01222,01222,01222,01334,01222,01334,01221,0331,0331,0332,0332,0332,0332,0332,0332,0332,0332,0332,0332,0332,0332,0333,01221,01221,01221,01221,01221,01334,01221,01334,0336,0330,0333,0336,0341,0337,0331,0333,0337,",
  "x0": 172.01499814083706,
  "y0": 363.20530548249985,
  "unit": 88.57805000000006,
  "width": 600,
  "height": 400,
  "style": {
    "color0": "black",
    "fill0": "black",
    "line0": 1,
    "color1": "black",
    "fill1": "black",
    "line1": 3,
    "color2": "red",
    "fill2": "red",
    "line2": 1,
    "color3": "#FF7900",
    "fill3": "#FF7900",
    "line3": 1,
    "color4": "yellow",
    "fill4": "yellow",
    "line4": 1,
    "color5": "green",
    "fill5": "green",
    "line5": 1,
    "color6": "blue",
    "fill6": "blue",
    "line6": 1,
    "color7": "purple",
    "fill7": "purple",
    "line7": 1
  },
  "shapes": [
    "0220:0333,0342,",
    "0221:0316,0336,0313,0336,0220,0220,0220,0220,0220,0337,0342,0336,0220,0220,0220,0220,0333,0337,0342,0336,0337,0316,0337,0313,",
    "0222:0333,0342,0336,0332,0342,0336,0332,0342,0333,0333,0342,0336,0333,0342,0332,0332,0342,0332,0332,0342,0332,0332,0342,0332,0337,0337,0337,0333,",
    "0223:0222,0222,0222,0222,0222,0222,0334,0222,0334,0221,0221,0221,0221,0221,0221,0334,0221,0334,",
    "0224:0362,0203,0335,0203,0203,0203,0203,0203,0203,0335,0203,0335,0203,0203,0203,0203,0203,0203,0354,0335,",
    "0225:0223,0322,0224,",
    "01220:0333,0200,0332,0336,0220,0333,0337,",
    "01221:0221,0200,",
    "01222:0222,0200,",
    "01223:0333,0200,0332,0336,0330,0336,0336,0331,0333,0330,0223,0331,0331,0331,0331,0332,0337,0337,0337,0333,",
    "01224:0333,0200,0332,0336,0330,0336,0336,0331,0333,0330,0224,0332,0337,0337,0331,0337,0333,",
    "01225:0333,0200,",
    "01226:0333,0200,",
    "01227:0333,0200,",
    "01230:0333,0200,",
    "01231:0333,0200,",
    "01232:0333,0200,",
    "01233:0333,0200,",
    "01234:0333,0200,",
    "01235:0333,0200,",
    "01236:0333,0200,",
    "01237:0333,0200,",
    "0240:0220,0336,0331,0333,0336,0321,0335,0342,0335,0335,0342,0335,0330,0330,0332,0332,0337,0337,",
    "01240:0333,0200,0336,0330,0332,0210,0240,0211,0333,0331,0337,",
    "0241:0220,0336,0321,0343,0332,0350,0335,0336,0342,0334,0334,0342,0335,0304,0337,0333,0337,",
    "01241:0333,0200,0336,0332,0330,0210,0241,0211,0333,0331,0337,",
    "0242:0220,0321,0336,0343,0333,0336,0350,0335,0342,0334,0334,0342,0335,0337,0304,0332,0337,",
    "01242:0333,0200,0336,0330,0332,0210,0242,0211,0333,0331,0337,",
    "0243:0220,0336,0331,0332,0336,0321,0343,0332,0350,0334,0336,0342,0335,0335,0342,0337,0334,0334,0335,0304,0332,0330,0330,0337,0337,0333,",
    "01243:0333,0200,0336,0330,0332,0210,0243,0211,0333,0331,0337,",
    "0244:0220,0336,0331,0333,0336,0321,0343,0333,0350,0336,0335,0342,0334,0334,0342,0335,0337,0304,0333,0330,0330,0337,0337,0332,",
    "01244:0333,0200,0336,0330,0332,0210,0244,0211,0333,0331,0337,",
    "0245:0210,0332,0332,0362,0335,0203,0203,0203,0203,0334,0203,0363,0332,0332,0331,0211,",
    "01245:0333,0200,0336,0330,0332,0336,0245,0337,0333,0331,0337,",
    "0246:0210,0332,0332,0335,0306,0336,0330,0335,0335,0335,0321,0362,0203,0335,0335,0203,0364,0331,0350,0335,0337,0366,0333,0333,0333,0333,0334,0334,0334,0334,0367,0335,0336,0342,0334,0334,0342,0330,0330,0330,0330,0335,0335,0335,0304,0337,0211,",
    "01246:0333,0200,0336,0330,0332,0336,0246,",
    "0247:0330,0332,0336,0332,0336,0221,0333,0333,0333,0222,0333,0333,0333,0223,0333,0333,0333,0225,0333,0331,0331,0331,0332,0332,0332,0332,0332,0332,0332,0332,0332,0332,0332,0332,0333,0333,0226,0331,0331,0331,0333,0333,0333,0333,0333,0333,0333,0333,0333,0333,0333,0333,0333,0330,0333,0330,0330,0333,0330,0331,0332,0332,0332,0332,0332,0332,0332,0332,0332,0332,0332,0332,0227,0333,0333,0333,0230,0333,0331,0331,0331,0331,0332,0332,0332,0330,0332,0332,0332,0332,0332,0332,0333,0333,0231,0333,0333,0333,0232,0331,0333,0330,0333,0333,0233,0333,0333,0333,0234,0330,0330,0332,0330,0332,0332,0337,0337,",
    "01247:0333,0200,0336,0330,0332,0220,0336,0247,0337,0331,0333,0337,"
  ]
}</json>-->	<path d = "M83 142 L83 97 L39 97 L39 142 L83 142 Z" stroke = "#000000" stroke-width = "3" fill = "none" />    <line x1="50" y1="120" x2="50" y2="114" style="stroke:#000000;stroke-width:3" />
    <line x1="47" y1="120" x2="47" y2="117" style="stroke:#000000;stroke-width:3" />
    <line x1="46" y1="120" x2="46" y2="118" style="stroke:#000000;stroke-width:3" />
    <line x1="49" y1="120" x2="49" y2="118" style="stroke:#000000;stroke-width:3" />
    <line x1="50" y1="120" x2="50" y2="119" style="stroke:#000000;stroke-width:3" />
    <line x1="48" y1="120" x2="48" y2="119" style="stroke:#000000;stroke-width:3" />
    <line x1="47" y1="120" x2="47" y2="119" style="stroke:#000000;stroke-width:3" />
    <line x1="45" y1="120" x2="45" y2="119" style="stroke:#000000;stroke-width:3" />
    <line x1="56" y1="120" x2="56" y2="114" style="stroke:#000000;stroke-width:3" />
    <line x1="53" y1="120" x2="53" y2="117" style="stroke:#000000;stroke-width:3" />
    <line x1="52" y1="120" x2="52" y2="118" style="stroke:#000000;stroke-width:3" />
    <line x1="54" y1="120" x2="54" y2="118" style="stroke:#000000;stroke-width:3" />
    <line x1="55" y1="120" x2="55" y2="119" style="stroke:#000000;stroke-width:3" />
    <line x1="54" y1="120" x2="54" y2="119" style="stroke:#000000;stroke-width:3" />
    <line x1="52" y1="120" x2="52" y2="119" style="stroke:#000000;stroke-width:3" />
    <line x1="51" y1="120" x2="51" y2="119" style="stroke:#000000;stroke-width:3" />
    <line x1="61" y1="120" x2="61" y2="114" style="stroke:#000000;stroke-width:3" />
    <line x1="59" y1="120" x2="59" y2="117" style="stroke:#000000;stroke-width:3" />
    <line x1="57" y1="120" x2="57" y2="118" style="stroke:#000000;stroke-width:3" />
    <line x1="60" y1="120" x2="60" y2="118" style="stroke:#000000;stroke-width:3" />
    <line x1="61" y1="120" x2="61" y2="119" style="stroke:#000000;stroke-width:3" />
    <line x1="59" y1="120" x2="59" y2="119" style="stroke:#000000;stroke-width:3" />
    <line x1="58" y1="120" x2="58" y2="119" style="stroke:#000000;stroke-width:3" />
    <line x1="56" y1="120" x2="56" y2="119" style="stroke:#000000;stroke-width:3" />
    <line x1="67" y1="120" x2="67" y2="114" style="stroke:#000000;stroke-width:3" />
    <line x1="64" y1="120" x2="64" y2="117" style="stroke:#000000;stroke-width:3" />
    <line x1="63" y1="120" x2="63" y2="118" style="stroke:#000000;stroke-width:3" />
    <line x1="65" y1="120" x2="65" y2="118" style="stroke:#000000;stroke-width:3" />
    <line x1="66" y1="120" x2="66" y2="119" style="stroke:#000000;stroke-width:3" />
    <line x1="65" y1="120" x2="65" y2="119" style="stroke:#000000;stroke-width:3" />
    <line x1="63" y1="120" x2="63" y2="119" style="stroke:#000000;stroke-width:3" />
    <line x1="62" y1="120" x2="62" y2="119" style="stroke:#000000;stroke-width:3" />
    <line x1="72" y1="120" x2="72" y2="114" style="stroke:#000000;stroke-width:3" />
    <line x1="70" y1="120" x2="70" y2="117" style="stroke:#000000;stroke-width:3" />
    <line x1="68" y1="120" x2="68" y2="118" style="stroke:#000000;stroke-width:3" />
    <line x1="71" y1="120" x2="71" y2="118" style="stroke:#000000;stroke-width:3" />
    <line x1="72" y1="120" x2="72" y2="119" style="stroke:#000000;stroke-width:3" />
    <line x1="70" y1="120" x2="70" y2="119" style="stroke:#000000;stroke-width:3" />
    <line x1="69" y1="120" x2="69" y2="119" style="stroke:#000000;stroke-width:3" />
    <line x1="68" y1="120" x2="68" y2="119" style="stroke:#000000;stroke-width:3" />
    <line x1="78" y1="120" x2="78" y2="114" style="stroke:#000000;stroke-width:3" />
    <line x1="75" y1="120" x2="75" y2="117" style="stroke:#000000;stroke-width:3" />
    <line x1="74" y1="120" x2="74" y2="118" style="stroke:#000000;stroke-width:3" />
    <line x1="77" y1="120" x2="77" y2="118" style="stroke:#000000;stroke-width:3" />
    <line x1="77" y1="120" x2="77" y2="119" style="stroke:#000000;stroke-width:3" />
    <line x1="76" y1="120" x2="76" y2="119" style="stroke:#000000;stroke-width:3" />
    <line x1="74" y1="120" x2="74" y2="119" style="stroke:#000000;stroke-width:3" />
    <line x1="73" y1="120" x2="73" y2="119" style="stroke:#000000;stroke-width:3" />
    <line x1="78" y1="114" x2="72" y2="114" style="stroke:#000000;stroke-width:3" />
    <line x1="78" y1="117" x2="75" y2="117" style="stroke:#000000;stroke-width:3" />
    <line x1="78" y1="118" x2="77" y2="118" style="stroke:#000000;stroke-width:3" />
    <line x1="78" y1="115" x2="77" y2="115" style="stroke:#000000;stroke-width:3" />
    <line x1="78" y1="115" x2="77" y2="115" style="stroke:#000000;stroke-width:3" />
    <line x1="78" y1="116" x2="77" y2="116" style="stroke:#000000;stroke-width:3" />
    <line x1="78" y1="118" x2="77" y2="118" style="stroke:#000000;stroke-width:3" />
    <line x1="78" y1="119" x2="77" y2="119" style="stroke:#000000;stroke-width:3" />
    <line x1="77" y1="114" x2="77" y2="115" style="stroke:#000000;stroke-width:3" />
    <line x1="77" y1="114" x2="77" y2="115" style="stroke:#000000;stroke-width:3" />
    <line x1="76" y1="114" x2="76" y2="115" style="stroke:#000000;stroke-width:3" />
    <line x1="76" y1="114" x2="76" y2="115" style="stroke:#000000;stroke-width:3" />
    <line x1="75" y1="114" x2="75" y2="115" style="stroke:#000000;stroke-width:3" />
    <line x1="75" y1="114" x2="75" y2="115" style="stroke:#000000;stroke-width:3" />
    <line x1="75" y1="114" x2="75" y2="115" style="stroke:#000000;stroke-width:3" />
    <line x1="74" y1="114" x2="74" y2="115" style="stroke:#000000;stroke-width:3" />
    <line x1="73" y1="114" x2="73" y2="115" style="stroke:#000000;stroke-width:3" />
    <line x1="73" y1="114" x2="73" y2="115" style="stroke:#000000;stroke-width:3" />
    <line x1="72" y1="114" x2="72" y2="115" style="stroke:#000000;stroke-width:3" />
    <line x1="72" y1="114" x2="72" y2="115" style="stroke:#000000;stroke-width:3" />
    <line x1="71" y1="114" x2="71" y2="115" style="stroke:#000000;stroke-width:3" />
    <line x1="71" y1="114" x2="71" y2="115" style="stroke:#000000;stroke-width:3" />
    <line x1="70" y1="114" x2="70" y2="115" style="stroke:#000000;stroke-width:3" />
    <line x1="70" y1="114" x2="70" y2="115" style="stroke:#000000;stroke-width:3" />
    <line x1="70" y1="114" x2="70" y2="115" style="stroke:#000000;stroke-width:3" />
    <line x1="69" y1="114" x2="69" y2="115" style="stroke:#000000;stroke-width:3" />
    <line x1="68" y1="114" x2="68" y2="115" style="stroke:#000000;stroke-width:3" />
    <line x1="68" y1="114" x2="68" y2="115" style="stroke:#000000;stroke-width:3" />
    <line x1="67" y1="114" x2="67" y2="115" style="stroke:#000000;stroke-width:3" />
    <line x1="67" y1="114" x2="67" y2="115" style="stroke:#000000;stroke-width:3" />
    <line x1="66" y1="114" x2="66" y2="115" style="stroke:#000000;stroke-width:3" />
    <line x1="66" y1="114" x2="66" y2="115" style="stroke:#000000;stroke-width:3" />
    <line x1="65" y1="114" x2="65" y2="115" style="stroke:#000000;stroke-width:3" />
    <line x1="65" y1="114" x2="65" y2="115" style="stroke:#000000;stroke-width:3" />
    <line x1="64" y1="114" x2="64" y2="115" style="stroke:#000000;stroke-width:3" />
    <line x1="64" y1="114" x2="64" y2="115" style="stroke:#000000;stroke-width:3" />
    <line x1="64" y1="114" x2="64" y2="115" style="stroke:#000000;stroke-width:3" />
    <line x1="63" y1="114" x2="63" y2="115" style="stroke:#000000;stroke-width:3" />
    <line x1="62" y1="114" x2="62" y2="115" style="stroke:#000000;stroke-width:3" />
    <line x1="62" y1="114" x2="62" y2="115" style="stroke:#000000;stroke-width:3" />
    <line x1="61" y1="114" x2="61" y2="115" style="stroke:#000000;stroke-width:3" />
    <line x1="61" y1="114" x2="61" y2="115" style="stroke:#000000;stroke-width:3" />
    <line x1="60" y1="114" x2="60" y2="115" style="stroke:#000000;stroke-width:3" />
    <line x1="60" y1="114" x2="60" y2="115" style="stroke:#000000;stroke-width:3" />
    <line x1="59" y1="114" x2="59" y2="115" style="stroke:#000000;stroke-width:3" />
    <line x1="59" y1="114" x2="59" y2="115" style="stroke:#000000;stroke-width:3" />
    <line x1="59" y1="114" x2="59" y2="115" style="stroke:#000000;stroke-width:3" />
    <line x1="58" y1="114" x2="58" y2="115" style="stroke:#000000;stroke-width:3" />
    <line x1="57" y1="114" x2="57" y2="115" style="stroke:#000000;stroke-width:3" />
    <line x1="57" y1="114" x2="57" y2="115" style="stroke:#000000;stroke-width:3" />
    <line x1="56" y1="114" x2="56" y2="115" style="stroke:#000000;stroke-width:3" />
    <line x1="56" y1="114" x2="56" y2="115" style="stroke:#000000;stroke-width:3" />
    <line x1="55" y1="114" x2="55" y2="115" style="stroke:#000000;stroke-width:3" />
    <line x1="55" y1="114" x2="55" y2="115" style="stroke:#000000;stroke-width:3" />
    <line x1="54" y1="114" x2="54" y2="115" style="stroke:#000000;stroke-width:3" />
    <line x1="54" y1="114" x2="54" y2="115" style="stroke:#000000;stroke-width:3" />
    <line x1="53" y1="114" x2="53" y2="115" style="stroke:#000000;stroke-width:3" />
    <line x1="53" y1="114" x2="53" y2="115" style="stroke:#000000;stroke-width:3" />
    <line x1="52" y1="114" x2="52" y2="115" style="stroke:#000000;stroke-width:3" />
    <line x1="52" y1="114" x2="52" y2="115" style="stroke:#000000;stroke-width:3" />
    <line x1="51" y1="114" x2="51" y2="115" style="stroke:#000000;stroke-width:3" />
    <line x1="51" y1="114" x2="51" y2="115" style="stroke:#000000;stroke-width:3" />
    <line x1="50" y1="114" x2="50" y2="115" style="stroke:#000000;stroke-width:3" />
    <line x1="50" y1="114" x2="50" y2="115" style="stroke:#000000;stroke-width:3" />
    <line x1="49" y1="114" x2="49" y2="115" style="stroke:#000000;stroke-width:3" />
    <line x1="49" y1="114" x2="49" y2="115" style="stroke:#000000;stroke-width:3" />
    <line x1="48" y1="114" x2="48" y2="115" style="stroke:#000000;stroke-width:3" />
    <line x1="47" y1="114" x2="47" y2="115" style="stroke:#000000;stroke-width:3" />
    <line x1="47" y1="114" x2="47" y2="115" style="stroke:#000000;stroke-width:3" />
    <line x1="47" y1="114" x2="47" y2="115" style="stroke:#000000;stroke-width:3" />
    <line x1="46" y1="114" x2="46" y2="115" style="stroke:#000000;stroke-width:3" />
    <line x1="46" y1="114" x2="46" y2="115" style="stroke:#000000;stroke-width:3" />
    <line x1="45" y1="114" x2="45" y2="115" style="stroke:#000000;stroke-width:3" />
    <line x1="45" y1="114" x2="45" y2="115" style="stroke:#000000;stroke-width:3" />
    <line x1="45" y1="115" x2="45" y2="115" style="stroke:#000000;stroke-width:3" />
    <line x1="45" y1="115" x2="45" y2="115" style="stroke:#000000;stroke-width:3" />
    <line x1="45" y1="116" x2="45" y2="116" style="stroke:#000000;stroke-width:3" />
    <line x1="45" y1="116" x2="45" y2="116" style="stroke:#000000;stroke-width:3" />
    <line x1="45" y1="117" x2="45" y2="117" style="stroke:#000000;stroke-width:3" />
    <line x1="45" y1="117" x2="46" y2="117" style="stroke:#000000;stroke-width:3" />
    <line x1="45" y1="117" x2="45" y2="117" style="stroke:#000000;stroke-width:3" />
    <line x1="45" y1="118" x2="45" y2="118" style="stroke:#000000;stroke-width:3" />
    <line x1="45" y1="119" x2="45" y2="119" style="stroke:#000000;stroke-width:3" />
    <line x1="45" y1="119" x2="45" y2="119" style="stroke:#000000;stroke-width:3" />
    <line x1="45" y1="120" x2="46" y2="120" style="stroke:#000000;stroke-width:3" />
    <circle cx="100" cy = "136" r = "2.768064062500002" stroke = "#000000" stroke-width = "3" fill = "#000000" />
    <circle cx="95" cy = "136" r = "2.768064062500002" stroke = "#000000" stroke-width = "3" fill = "#000000" />
    <circle cx="95" cy = "131" r = "2.768064062500002" stroke = "#000000" stroke-width = "3" fill = "#000000" />
    <circle cx="100" cy = "131" r = "2.768064062500002" stroke = "#000000" stroke-width = "3" fill = "#000000" />
    <circle cx="100" cy = "120" r = "2.768064062500002" stroke = "#000000" stroke-width = "3" fill = "#000000" />
    <circle cx="95" cy = "120" r = "2.768064062500002" stroke = "#000000" stroke-width = "3" fill = "#000000" />
    <circle cx="95" cy = "114" r = "2.768064062500002" stroke = "#000000" stroke-width = "3" fill = "#000000" />
    <circle cx="100" cy = "114" r = "2.768064062500002" stroke = "#000000" stroke-width = "3" fill = "#000000" />
    <line x1="161" y1="142" x2="161" y2="97" style="stroke:#000000;stroke-width:3" />
    <line x1="139" y1="142" x2="139" y2="120" style="stroke:#000000;stroke-width:3" />
    <line x1="128" y1="142" x2="128" y2="131" style="stroke:#000000;stroke-width:3" />
    <line x1="150" y1="142" x2="150" y2="131" style="stroke:#000000;stroke-width:3" />
    <line x1="155" y1="142" x2="155" y2="136" style="stroke:#000000;stroke-width:3" />
    <line x1="144" y1="142" x2="144" y2="136" style="stroke:#000000;stroke-width:3" />
    <line x1="133" y1="142" x2="133" y2="136" style="stroke:#000000;stroke-width:3" />
    <line x1="122" y1="142" x2="122" y2="136" style="stroke:#000000;stroke-width:3" />
	<path d = "M161 142 L161 97 L117 97 L117 142 L161 142 Z" stroke = "#000000" stroke-width = "3" fill = "none" />    <line x1="205" y1="142" x2="205" y2="97" style="stroke:#000000;stroke-width:3" />
    <line x1="183" y1="142" x2="183" y2="120" style="stroke:#000000;stroke-width:3" />
    <line x1="172" y1="142" x2="172" y2="131" style="stroke:#000000;stroke-width:3" />
    <line x1="194" y1="142" x2="194" y2="131" style="stroke:#000000;stroke-width:3" />
    <line x1="200" y1="142" x2="200" y2="136" style="stroke:#000000;stroke-width:3" />
    <line x1="189" y1="142" x2="189" y2="136" style="stroke:#000000;stroke-width:3" />
    <line x1="178" y1="142" x2="178" y2="136" style="stroke:#000000;stroke-width:3" />
    <line x1="166" y1="142" x2="166" y2="136" style="stroke:#000000;stroke-width:3" />
	<path d = "M205 142 L205 97 L161 97 L161 142 L205 142 Z" stroke = "#000000" stroke-width = "3" fill = "none" />    <line x1="250" y1="142" x2="250" y2="97" style="stroke:#000000;stroke-width:3" />
    <line x1="227" y1="142" x2="227" y2="120" style="stroke:#000000;stroke-width:3" />
    <line x1="216" y1="142" x2="216" y2="131" style="stroke:#000000;stroke-width:3" />
    <line x1="238" y1="142" x2="238" y2="131" style="stroke:#000000;stroke-width:3" />
    <line x1="244" y1="142" x2="244" y2="136" style="stroke:#000000;stroke-width:3" />
    <line x1="233" y1="142" x2="233" y2="136" style="stroke:#000000;stroke-width:3" />
    <line x1="222" y1="142" x2="222" y2="136" style="stroke:#000000;stroke-width:3" />
    <line x1="211" y1="142" x2="211" y2="136" style="stroke:#000000;stroke-width:3" />
	<path d = "M250 142 L250 97 L205 97 L205 142 L250 142 Z" stroke = "#000000" stroke-width = "3" fill = "none" />    <line x1="294" y1="142" x2="294" y2="97" style="stroke:#000000;stroke-width:3" />
    <line x1="272" y1="142" x2="272" y2="120" style="stroke:#000000;stroke-width:3" />
    <line x1="261" y1="142" x2="261" y2="131" style="stroke:#000000;stroke-width:3" />
    <line x1="283" y1="142" x2="283" y2="131" style="stroke:#000000;stroke-width:3" />
    <line x1="288" y1="142" x2="288" y2="136" style="stroke:#000000;stroke-width:3" />
    <line x1="277" y1="142" x2="277" y2="136" style="stroke:#000000;stroke-width:3" />
    <line x1="266" y1="142" x2="266" y2="136" style="stroke:#000000;stroke-width:3" />
    <line x1="255" y1="142" x2="255" y2="136" style="stroke:#000000;stroke-width:3" />
	<path d = "M294 142 L294 97 L250 97 L250 142 L294 142 Z" stroke = "#000000" stroke-width = "3" fill = "none" />    <line x1="338" y1="142" x2="338" y2="97" style="stroke:#000000;stroke-width:3" />
    <line x1="316" y1="142" x2="316" y2="120" style="stroke:#000000;stroke-width:3" />
    <line x1="305" y1="142" x2="305" y2="131" style="stroke:#000000;stroke-width:3" />
    <line x1="327" y1="142" x2="327" y2="131" style="stroke:#000000;stroke-width:3" />
    <line x1="333" y1="142" x2="333" y2="136" style="stroke:#000000;stroke-width:3" />
    <line x1="321" y1="142" x2="321" y2="136" style="stroke:#000000;stroke-width:3" />
    <line x1="310" y1="142" x2="310" y2="136" style="stroke:#000000;stroke-width:3" />
    <line x1="299" y1="142" x2="299" y2="136" style="stroke:#000000;stroke-width:3" />
	<path d = "M338 142 L338 97 L294 97 L294 142 L338 142 Z" stroke = "#000000" stroke-width = "3" fill = "none" />    <line x1="382" y1="142" x2="382" y2="97" style="stroke:#000000;stroke-width:3" />
    <line x1="360" y1="142" x2="360" y2="120" style="stroke:#000000;stroke-width:3" />
    <line x1="349" y1="142" x2="349" y2="131" style="stroke:#000000;stroke-width:3" />
    <line x1="371" y1="142" x2="371" y2="131" style="stroke:#000000;stroke-width:3" />
    <line x1="377" y1="142" x2="377" y2="136" style="stroke:#000000;stroke-width:3" />
    <line x1="366" y1="142" x2="366" y2="136" style="stroke:#000000;stroke-width:3" />
    <line x1="355" y1="142" x2="355" y2="136" style="stroke:#000000;stroke-width:3" />
    <line x1="344" y1="142" x2="344" y2="136" style="stroke:#000000;stroke-width:3" />
	<path d = "M382 142 L382 97 L338 97 L338 142 L382 142 Z" stroke = "#000000" stroke-width = "3" fill = "none" />	<path d = "M427 142 L427 97 L382 97 L382 142 L427 142 Z" stroke = "#000000" stroke-width = "3" fill = "none" />  <path d="M396.70311191342665 111.78640050508695           A11.072256250000008 11.072256250000008 0 0 1 412.3616468682469 111.78640050508628" fill = "none" stroke = "#000000" stroke-width = "3" />
  <path d="M396.7031119134272 127.44493545990719           A11.072256250000008 11.072256250000008 0 0 1 396.70311191342665 111.78640050508695" fill = "none" stroke = "#000000" stroke-width = "3" />
  <path d="M412.3616468682475 127.44493545990669           A11.072256250000008 11.072256250000008 0 0 1 396.7031119134272 127.44493545990719" fill = "none" stroke = "#000000" stroke-width = "3" />
	<path d = "M408 138 L412 127 L402 123 " stroke = "#000000" stroke-width = "3" fill = "none" />    <line x1="471" y1="142" x2="471" y2="97" style="stroke:#000000;stroke-width:3" />
    <line x1="449" y1="142" x2="449" y2="120" style="stroke:#000000;stroke-width:3" />
    <line x1="438" y1="142" x2="438" y2="131" style="stroke:#000000;stroke-width:3" />
    <line x1="460" y1="142" x2="460" y2="131" style="stroke:#000000;stroke-width:3" />
    <line x1="465" y1="142" x2="465" y2="136" style="stroke:#000000;stroke-width:3" />
    <line x1="454" y1="142" x2="454" y2="136" style="stroke:#000000;stroke-width:3" />
    <line x1="443" y1="142" x2="443" y2="136" style="stroke:#000000;stroke-width:3" />
    <line x1="432" y1="142" x2="432" y2="136" style="stroke:#000000;stroke-width:3" />
	<path d = "M471 142 L471 97 L427 97 L427 142 L471 142 Z" stroke = "#000000" stroke-width = "3" fill = "none" />	<path d = "M515 142 L515 97 L471 97 L471 142 L515 142 Z" stroke = "#000000" stroke-width = "3" fill = "none" />  <path d="M485.2811619134267 111.78640050508317           A11.072256250000008 11.072256250000008 0 0 1 500.9396968682469 111.78640050508274" fill = "none" stroke = "#000000" stroke-width = "3" />
  <path d="M485.281161913427 127.4449354599034           A11.072256250000008 11.072256250000008 0 0 1 485.2811619134267 111.78640050508317" fill = "none" stroke = "#000000" stroke-width = "3" />
  <path d="M500.93969686824727 127.44493545990314           A11.072256250000008 11.072256250000008 0 0 1 485.281161913427 127.4449354599034" fill = "none" stroke = "#000000" stroke-width = "3" />
	<path d = "M497 138 L501 127 L491 123 " stroke = "#000000" stroke-width = "3" fill = "none" />    <line x1="520" y1="142" x2="520" y2="137" style="stroke:#000000;stroke-width:3" />
    <line x1="524" y1="142" x2="524" y2="137" style="stroke:#000000;stroke-width:3" />
    <line x1="529" y1="142" x2="529" y2="137" style="stroke:#000000;stroke-width:3" />
    <line x1="533" y1="142" x2="533" y2="137" style="stroke:#000000;stroke-width:3" />
    <line x1="537" y1="142" x2="537" y2="137" style="stroke:#000000;stroke-width:3" />
    <line x1="537" y1="142" x2="537" y2="133" style="stroke:#000000;stroke-width:3" />
    <line x1="542" y1="142" x2="542" y2="137" style="stroke:#000000;stroke-width:3" />
    <line x1="546" y1="142" x2="546" y2="137" style="stroke:#000000;stroke-width:3" />
    <line x1="551" y1="142" x2="551" y2="137" style="stroke:#000000;stroke-width:3" />
    <line x1="555" y1="142" x2="555" y2="137" style="stroke:#000000;stroke-width:3" />
    <line x1="560" y1="142" x2="560" y2="133" style="stroke:#000000;stroke-width:3" />
	<path d = "M560 142 L560 97 L515 97 L515 142 L560 142 Z" stroke = "#000000" stroke-width = "3" fill = "none" />    <line x1="77" y1="230" x2="77" y2="226" style="stroke:#000000;stroke-width:3" />
    <line x1="81" y1="230" x2="81" y2="226" style="stroke:#000000;stroke-width:3" />
    <line x1="86" y1="230" x2="86" y2="226" style="stroke:#000000;stroke-width:3" />
    <line x1="90" y1="230" x2="90" y2="226" style="stroke:#000000;stroke-width:3" />
    <line x1="95" y1="230" x2="95" y2="226" style="stroke:#000000;stroke-width:3" />
    <line x1="95" y1="230" x2="95" y2="221" style="stroke:#000000;stroke-width:3" />
    <line x1="99" y1="230" x2="99" y2="226" style="stroke:#000000;stroke-width:3" />
    <line x1="103" y1="230" x2="103" y2="226" style="stroke:#000000;stroke-width:3" />
    <line x1="108" y1="230" x2="108" y2="226" style="stroke:#000000;stroke-width:3" />
    <line x1="112" y1="230" x2="112" y2="226" style="stroke:#000000;stroke-width:3" />
    <line x1="117" y1="230" x2="117" y2="221" style="stroke:#000000;stroke-width:3" />
	<path d = "M117 230 L117 186 L72 186 L72 230 L117 230 Z" stroke = "#000000" stroke-width = "3" fill = "none" />    <line x1="121" y1="230" x2="121" y2="226" style="stroke:#000000;stroke-width:3" />
    <line x1="126" y1="230" x2="126" y2="226" style="stroke:#000000;stroke-width:3" />
    <line x1="130" y1="230" x2="130" y2="226" style="stroke:#000000;stroke-width:3" />
    <line x1="134" y1="230" x2="134" y2="226" style="stroke:#000000;stroke-width:3" />
    <line x1="139" y1="230" x2="139" y2="226" style="stroke:#000000;stroke-width:3" />
    <line x1="139" y1="230" x2="139" y2="221" style="stroke:#000000;stroke-width:3" />
    <line x1="143" y1="230" x2="143" y2="226" style="stroke:#000000;stroke-width:3" />
    <line x1="148" y1="230" x2="148" y2="226" style="stroke:#000000;stroke-width:3" />
    <line x1="152" y1="230" x2="152" y2="226" style="stroke:#000000;stroke-width:3" />
    <line x1="157" y1="230" x2="157" y2="226" style="stroke:#000000;stroke-width:3" />
    <line x1="161" y1="230" x2="161" y2="221" style="stroke:#000000;stroke-width:3" />
	<path d = "M161 230 L161 186 L117 186 L117 230 L161 230 Z" stroke = "#000000" stroke-width = "3" fill = "none" />    <line x1="165" y1="230" x2="165" y2="226" style="stroke:#000000;stroke-width:3" />
    <line x1="170" y1="230" x2="170" y2="226" style="stroke:#000000;stroke-width:3" />
    <line x1="174" y1="230" x2="174" y2="226" style="stroke:#000000;stroke-width:3" />
    <line x1="179" y1="230" x2="179" y2="226" style="stroke:#000000;stroke-width:3" />
    <line x1="183" y1="230" x2="183" y2="226" style="stroke:#000000;stroke-width:3" />
    <line x1="183" y1="230" x2="183" y2="221" style="stroke:#000000;stroke-width:3" />
    <line x1="188" y1="230" x2="188" y2="226" style="stroke:#000000;stroke-width:3" />
    <line x1="192" y1="230" x2="192" y2="226" style="stroke:#000000;stroke-width:3" />
    <line x1="196" y1="230" x2="196" y2="226" style="stroke:#000000;stroke-width:3" />
    <line x1="201" y1="230" x2="201" y2="226" style="stroke:#000000;stroke-width:3" />
    <line x1="205" y1="230" x2="205" y2="221" style="stroke:#000000;stroke-width:3" />
	<path d = "M205 230 L205 186 L161 186 L161 230 L205 230 Z" stroke = "#000000" stroke-width = "3" fill = "none" />    <line x1="210" y1="230" x2="210" y2="226" style="stroke:#000000;stroke-width:3" />
    <line x1="214" y1="230" x2="214" y2="226" style="stroke:#000000;stroke-width:3" />
    <line x1="219" y1="230" x2="219" y2="226" style="stroke:#000000;stroke-width:3" />
    <line x1="223" y1="230" x2="223" y2="226" style="stroke:#000000;stroke-width:3" />
    <line x1="227" y1="230" x2="227" y2="226" style="stroke:#000000;stroke-width:3" />
    <line x1="227" y1="230" x2="227" y2="221" style="stroke:#000000;stroke-width:3" />
    <line x1="232" y1="230" x2="232" y2="226" style="stroke:#000000;stroke-width:3" />
    <line x1="236" y1="230" x2="236" y2="226" style="stroke:#000000;stroke-width:3" />
    <line x1="241" y1="230" x2="241" y2="226" style="stroke:#000000;stroke-width:3" />
    <line x1="245" y1="230" x2="245" y2="226" style="stroke:#000000;stroke-width:3" />
    <line x1="250" y1="230" x2="250" y2="221" style="stroke:#000000;stroke-width:3" />
	<path d = "M250 230 L250 186 L205 186 L205 230 L250 230 Z" stroke = "#000000" stroke-width = "3" fill = "none" />    <line x1="254" y1="230" x2="254" y2="226" style="stroke:#000000;stroke-width:3" />
    <line x1="258" y1="230" x2="258" y2="226" style="stroke:#000000;stroke-width:3" />
    <line x1="263" y1="230" x2="263" y2="226" style="stroke:#000000;stroke-width:3" />
    <line x1="267" y1="230" x2="267" y2="226" style="stroke:#000000;stroke-width:3" />
    <line x1="272" y1="230" x2="272" y2="226" style="stroke:#000000;stroke-width:3" />
    <line x1="272" y1="230" x2="272" y2="221" style="stroke:#000000;stroke-width:3" />
    <line x1="276" y1="230" x2="276" y2="226" style="stroke:#000000;stroke-width:3" />
    <line x1="281" y1="230" x2="281" y2="226" style="stroke:#000000;stroke-width:3" />
    <line x1="285" y1="230" x2="285" y2="226" style="stroke:#000000;stroke-width:3" />
    <line x1="289" y1="230" x2="289" y2="226" style="stroke:#000000;stroke-width:3" />
    <line x1="294" y1="230" x2="294" y2="221" style="stroke:#000000;stroke-width:3" />
	<path d = "M294 230 L294 186 L250 186 L250 230 L294 230 Z" stroke = "#000000" stroke-width = "3" fill = "none" />	<path d = "M338 230 L338 186 L294 186 L294 230 L338 230 Z" stroke = "#000000" stroke-width = "3" fill = "none" />  <path d="M308.1250619134279 200.36445050509164           A11.072256250000008 11.072256250000008 0 0 1 323.7835968682481 200.36445050509357" fill = "none" stroke = "#000000" stroke-width = "3" />
  <path d="M308.12506191342584 216.02298545991187           A11.072256250000008 11.072256250000008 0 0 1 308.1250619134279 200.36445050509164" fill = "none" stroke = "#000000" stroke-width = "3" />
  <path d="M323.7835968682461 216.02298545991397           A11.072256250000008 11.072256250000008 0 0 1 308.12506191342584 216.02298545991187" fill = "none" stroke = "#000000" stroke-width = "3" />
	<path d = "M320 226 L324 216 L314 212 " stroke = "#000000" stroke-width = "3" fill = "none" />    <line x1="343" y1="230" x2="343" y2="226" style="stroke:#000000;stroke-width:3" />
    <line x1="347" y1="230" x2="347" y2="226" style="stroke:#000000;stroke-width:3" />
    <line x1="351" y1="230" x2="351" y2="226" style="stroke:#000000;stroke-width:3" />
    <line x1="356" y1="230" x2="356" y2="226" style="stroke:#000000;stroke-width:3" />
    <line x1="360" y1="230" x2="360" y2="226" style="stroke:#000000;stroke-width:3" />
    <line x1="360" y1="230" x2="360" y2="221" style="stroke:#000000;stroke-width:3" />
    <line x1="365" y1="230" x2="365" y2="226" style="stroke:#000000;stroke-width:3" />
    <line x1="369" y1="230" x2="369" y2="226" style="stroke:#000000;stroke-width:3" />
    <line x1="374" y1="230" x2="374" y2="226" style="stroke:#000000;stroke-width:3" />
    <line x1="378" y1="230" x2="378" y2="226" style="stroke:#000000;stroke-width:3" />
    <line x1="382" y1="230" x2="382" y2="221" style="stroke:#000000;stroke-width:3" />
	<path d = "M382 230 L382 186 L338 186 L338 230 L382 230 Z" stroke = "#000000" stroke-width = "3" fill = "none" />	<path d = "M427 230 L427 186 L382 186 L382 230 L427 230 Z" stroke = "#000000" stroke-width = "3" fill = "none" />  <path d="M396.7031119134279 200.36445050510284           A11.072256250000008 11.072256250000008 0 0 1 412.3616468682482 200.36445050510534" fill = "none" stroke = "#000000" stroke-width = "3" />
  <path d="M396.7031119134254 216.02298545992306           A11.072256250000008 11.072256250000008 0 0 1 396.7031119134279 200.36445050510284" fill = "none" stroke = "#000000" stroke-width = "3" />
  <path d="M412.36164686824566 216.02298545992562           A11.072256250000008 11.072256250000008 0 0 1 396.7031119134254 216.02298545992306" fill = "none" stroke = "#000000" stroke-width = "3" />
	<path d = "M408 226 L412 216 L402 212 " stroke = "#000000" stroke-width = "3" fill = "none" /><circle cx="449" cy = "208" r = "11.072256250000008" stroke = "#000000" stroke-width = "3" fill = "none" />
</svg>