<svg width="600" height="400" viewbox = "0 0 600 400"  xmlns="http://www.w3.org/2000/svg">
<!--<json>{
  "glyph": "0321,0330,0330,0332,0336,0332,0330,01222,01072,01333,01342,01336,01332,01342,01336,01332,01342,01333,01333,0331,0332,0332,0332,0332,0332,0332,0332,0332,0332,0332,0332,0332,0331,0333,01342,01336,01333,01342,01332,01332,01342,01332,01332,01342,01332,0331,0332,0332,0332,0332,0332,0332,0332,0332,0332,0332,0332,0331,01332,01342,01332,01337,01337,01337,01333,0336,0330,0333,0336,0341,0337,0331,0333,0337,",
  "x0": 172.01499814083706,
  "y0": 313.20530548249985,
  "unit": 88.57805000000006,
  "width": 600,
  "height": 400,
  "style": {
    "color0": "black",
    "fill0": "black",
    "line0": 1,
    "color1": "black",
    "fill1": "black",
    "line1": 3,
    "color2": "red",
    "fill2": "red",
    "line2": 1,
    "color3": "#FF7900",
    "fill3": "#FF7900",
    "line3": 1,
    "color4": "yellow",
    "fill4": "yellow",
    "line4": 1,
    "color5": "green",
    "fill5": "green",
    "line5": 1,
    "color6": "blue",
    "fill6": "blue",
    "line6": 1,
    "color7": "purple",
    "fill7": "purple",
    "line7": 1
  },
  "shapes": [
    "0220:0333,0342,",
    "0221:0316,0336,0313,0336,0220,0220,0220,0220,0220,0337,0342,0336,0220,0220,0220,0220,0333,0337,0342,0336,0337,0316,0337,0313,",
    "0222:0333,0342,0336,0332,0342,0336,0332,0342,0333,0333,0342,0336,0333,0342,0332,0332,0342,0332,0332,0342,0332,0332,0342,0332,0337,0337,0337,0333,",
    "0223:0222,0222,0222,0222,0222,0222,0334,0222,0334,0221,0221,0221,0221,0221,0221,0334,0221,0334,",
    "0224:0362,0203,0335,0203,0203,0203,0203,0203,0203,0335,0203,0335,0203,0203,0203,0203,0203,0203,0354,0335,",
    "0225:0223,0322,0224,",
    "01220:0333,0200,0332,0336,0220,0333,0337,",
    "01221:0221,0200,",
    "01222:0222,0200,",
    "01223:0333,0200,0332,0336,0330,0336,0336,0331,0333,0330,0223,0331,0331,0331,0331,0332,0337,0337,0337,0333,",
    "01224:0333,0200,0332,0336,0330,0336,0336,0331,0333,0330,0224,0332,0337,0337,0331,0337,0333,",
    "01225:0333,0200,",
    "01226:0333,0200,",
    "01227:0333,0200,",
    "01230:0333,0200,",
    "01231:0333,0200,",
    "01232:0333,0200,",
    "01233:0333,0200,",
    "01234:0333,0200,",
    "01235:0333,0200,",
    "01236:0333,0200,",
    "01237:0333,0200,",
    "0240:0220,0336,0331,0333,0336,0321,0335,0342,0335,0335,0342,0335,0330,0330,0332,0332,0337,0337,",
    "01240:0333,0200,0336,0330,0332,0210,0240,0211,0333,0331,0337,",
    "0241:0220,0336,0321,0343,0332,0350,0335,0336,0342,0334,0334,0342,0335,0304,0337,0333,0337,",
    "01241:0333,0200,0336,0332,0330,0210,0241,0211,0333,0331,0337,",
    "0242:0220,0321,0336,0343,0333,0336,0350,0335,0342,0334,0334,0342,0335,0337,0304,0332,0337,",
    "01242:0333,0200,0336,0330,0332,0210,0242,0211,0333,0331,0337,",
    "0243:0220,0336,0331,0332,0336,0321,0343,0332,0350,0334,0336,0342,0335,0335,0342,0337,0334,0334,0335,0304,0332,0330,0330,0337,0337,0333,",
    "01243:0333,0200,0336,0330,0332,0210,0243,0211,0333,0331,0337,",
    "0244:0220,0336,0331,0333,0336,0321,0343,0333,0350,0336,0335,0342,0334,0334,0342,0335,0337,0304,0333,0330,0330,0337,0337,0332,",
    "01244:0333,0200,0336,0330,0332,0210,0244,0211,0333,0331,0337,",
    "0245:0210,0332,0332,0362,0335,0203,0203,0203,0203,0334,0203,0363,0332,0332,0331,0211,",
    "01245:0333,0200,0336,0330,0332,0336,0245,0337,0333,0331,0337,",
    "0246:0210,0332,0332,0335,0306,0336,0330,0335,0335,0335,0321,0362,0203,0335,0335,0203,0364,0331,0350,0335,0337,0366,0333,0333,0333,0333,0334,0334,0334,0334,0367,0335,0336,0342,0334,0334,0342,0330,0330,0330,0330,0335,0335,0335,0304,0337,0211,",
    "01246:0333,0200,0336,0330,0332,0336,0246,",
    "0247:0330,0332,0336,0332,0336,0221,0333,0333,0333,0222,0333,0333,0333,0223,0333,0333,0333,0225,0333,0331,0331,0331,0332,0332,0332,0332,0332,0332,0332,0332,0332,0332,0332,0332,0333,0333,0226,0331,0331,0331,0333,0333,0333,0333,0333,0333,0333,0333,0333,0333,0333,0333,0333,0330,0333,0330,0330,0333,0330,0331,0332,0332,0332,0332,0332,0332,0332,0332,0332,0332,0332,0332,0227,0333,0333,0333,0230,0333,0331,0331,0331,0331,0332,0332,0332,0330,0332,0332,0332,0332,0332,0332,0333,0333,0231,0333,0333,0333,0232,0331,0333,0330,0333,0333,0233,0333,0333,0333,0234,0330,0330,0332,0330,0332,0332,0337,0337,",
    "01247:0333,0200,0336,0330,0332,0220,0336,0247,0337,0331,0333,0337,"
  ]
}</json>-->    <line x1="83" y1="92" x2="83" y2="47" style="stroke:#000000;stroke-width:3" />
    <line x1="61" y1="92" x2="61" y2="70" style="stroke:#000000;stroke-width:3" />
    <line x1="50" y1="92" x2="50" y2="81" style="stroke:#000000;stroke-width:3" />
    <line x1="72" y1="92" x2="72" y2="81" style="stroke:#000000;stroke-width:3" />
    <line x1="78" y1="92" x2="78" y2="86" style="stroke:#000000;stroke-width:3" />
    <line x1="67" y1="92" x2="67" y2="86" style="stroke:#000000;stroke-width:3" />
    <line x1="56" y1="92" x2="56" y2="86" style="stroke:#000000;stroke-width:3" />
    <line x1="45" y1="92" x2="45" y2="86" style="stroke:#000000;stroke-width:3" />
	<path d = "M83 92 L83 47 L39 47 L39 92 L83 92 Z" stroke = "#000000" stroke-width = "3" fill = "none" />    <circle cx="100" cy = "86" r = "2.768064062500002" stroke = "#000000" stroke-width = "3" fill = "#000000" />
    <circle cx="95" cy = "86" r = "2.768064062500002" stroke = "#000000" stroke-width = "3" fill = "#000000" />
    <circle cx="95" cy = "81" r = "2.768064062500002" stroke = "#000000" stroke-width = "3" fill = "#000000" />
    <circle cx="100" cy = "81" r = "2.768064062500002" stroke = "#000000" stroke-width = "3" fill = "#000000" />
    <circle cx="100" cy = "70" r = "2.768064062500002" stroke = "#000000" stroke-width = "3" fill = "#000000" />
    <circle cx="95" cy = "70" r = "2.768064062500002" stroke = "#000000" stroke-width = "3" fill = "#000000" />
    <circle cx="95" cy = "64" r = "2.768064062500002" stroke = "#000000" stroke-width = "3" fill = "#000000" />
    <circle cx="100" cy = "64" r = "2.768064062500002" stroke = "#000000" stroke-width = "3" fill = "#000000" />
	<path d = "M161 92 L161 47 L117 47 L117 92 L161 92 Z" stroke = "#000000" stroke-width = "3" fill = "none" />	<path d = "M128 75 L128 64 L139 64 L139 59 L144 64 L150 70 L144 75 L139 81 L139 75 L128 75 Z" stroke = "#000000" stroke-width = "3" fill = "none" />	<path d = "M205 92 L205 47 L161 47 L161 92 L205 92 Z" stroke = "#000000" stroke-width = "3" fill = "none" />    <line x1="183" y1="70" x2="172" y2="70" style="stroke:#000000;stroke-width:3" />
<circle cx="172" cy = "70" r = "3" stroke = "#000000" stroke-width = "3" fill = "#000000" />
    <line x1="183" y1="70" x2="194" y2="70" style="stroke:#000000;stroke-width:3" />
<circle cx="194" cy = "70" r = "3" stroke = "#000000" stroke-width = "3" fill = "#000000" />
	<path d = "M250 92 L250 47 L205 47 L205 92 L250 92 Z" stroke = "#000000" stroke-width = "3" fill = "none" />    <line x1="238" y1="70" x2="216" y2="70" style="stroke:#000000;stroke-width:3" />
	<path d = "M294 92 L294 47 L250 47 L250 92 L294 92 Z" stroke = "#000000" stroke-width = "3" fill = "none" />	<path d = "M283 64 L283 75 L272 75 L272 81 L266 75 L261 70 L266 64 L272 59 L272 64 L283 64 Z" stroke = "#000000" stroke-width = "3" fill = "none" />	<path d = "M338 92 L338 47 L294 47 L294 92 L338 92 Z" stroke = "#000000" stroke-width = "3" fill = "none" />    <line x1="316" y1="70" x2="305" y2="70" style="stroke:#000000;stroke-width:3" />
<circle cx="305" cy = "70" r = "3" stroke = "#000000" stroke-width = "3" fill = "#000000" />
    <line x1="316" y1="70" x2="327" y2="70" style="stroke:#000000;stroke-width:3" />
<circle cx="327" cy = "70" r = "3" stroke = "#000000" stroke-width = "3" fill = "#000000" />
	<path d = "M382 92 L382 47 L338 47 L338 92 L382 92 Z" stroke = "#000000" stroke-width = "3" fill = "none" />    <line x1="371" y1="70" x2="349" y2="70" style="stroke:#000000;stroke-width:3" />
	<path d = "M427 92 L427 47 L382 47 L382 92 L427 92 Z" stroke = "#000000" stroke-width = "3" fill = "none" />	<path d = "M416 64 L416 75 L405 75 L405 81 L399 75 L393 70 L399 64 L405 59 L405 64 L416 64 Z" stroke = "#000000" stroke-width = "3" fill = "none" />	<path d = "M471 92 L471 47 L427 47 L427 92 L471 92 Z" stroke = "#000000" stroke-width = "3" fill = "none" />    <line x1="449" y1="70" x2="438" y2="70" style="stroke:#000000;stroke-width:3" />
<circle cx="438" cy = "70" r = "3" stroke = "#000000" stroke-width = "3" fill = "#000000" />
    <line x1="449" y1="70" x2="460" y2="70" style="stroke:#000000;stroke-width:3" />
<circle cx="460" cy = "70" r = "3" stroke = "#000000" stroke-width = "3" fill = "#000000" />
	<path d = "M515 92 L515 47 L471 47 L471 92 L515 92 Z" stroke = "#000000" stroke-width = "3" fill = "none" />	<path d = "M482 75 L482 64 L493 64 L493 59 L499 64 L504 70 L499 75 L493 81 L493 75 L482 75 Z" stroke = "#000000" stroke-width = "3" fill = "none" />	<path d = "M560 92 L560 47 L515 47 L515 92 L560 92 Z" stroke = "#000000" stroke-width = "3" fill = "none" />	<path d = "M526 75 L526 64 L537 64 L537 59 L543 64 L548 70 L543 75 L537 81 L537 75 L526 75 Z" stroke = "#000000" stroke-width = "3" fill = "none" />	<path d = "M117 180 L117 136 L72 136 L72 180 L117 180 Z" stroke = "#000000" stroke-width = "3" fill = "none" />    <line x1="95" y1="158" x2="83" y2="158" style="stroke:#000000;stroke-width:3" />
<circle cx="83" cy = "158" r = "3" stroke = "#000000" stroke-width = "3" fill = "#000000" />
    <line x1="95" y1="158" x2="106" y2="158" style="stroke:#000000;stroke-width:3" />
<circle cx="106" cy = "158" r = "3" stroke = "#000000" stroke-width = "3" fill = "#000000" />
	<path d = "M161 180 L161 136 L117 136 L117 180 L161 180 Z" stroke = "#000000" stroke-width = "3" fill = "none" />    <line x1="150" y1="158" x2="128" y2="158" style="stroke:#000000;stroke-width:3" />
	<path d = "M205 180 L205 136 L161 136 L161 180 L205 180 Z" stroke = "#000000" stroke-width = "3" fill = "none" />	<path d = "M172 164 L172 153 L183 153 L183 147 L189 153 L194 158 L189 164 L183 169 L183 164 L172 164 Z" stroke = "#000000" stroke-width = "3" fill = "none" />	<path d = "M250 180 L250 136 L205 136 L205 180 L250 180 Z" stroke = "#000000" stroke-width = "3" fill = "none" />    <line x1="227" y1="158" x2="216" y2="158" style="stroke:#000000;stroke-width:3" />
<circle cx="216" cy = "158" r = "3" stroke = "#000000" stroke-width = "3" fill = "#000000" />
    <line x1="227" y1="158" x2="238" y2="158" style="stroke:#000000;stroke-width:3" />
<circle cx="238" cy = "158" r = "3" stroke = "#000000" stroke-width = "3" fill = "#000000" />
	<path d = "M294 180 L294 136 L250 136 L250 180 L294 180 Z" stroke = "#000000" stroke-width = "3" fill = "none" />	<path d = "M283 153 L283 164 L272 164 L272 169 L266 164 L261 158 L266 153 L272 147 L272 153 L283 153 Z" stroke = "#000000" stroke-width = "3" fill = "none" />	<path d = "M338 180 L338 136 L294 136 L294 180 L338 180 Z" stroke = "#000000" stroke-width = "3" fill = "none" />	<path d = "M327 153 L327 164 L316 164 L316 169 L310 164 L305 158 L310 153 L316 147 L316 153 L327 153 Z" stroke = "#000000" stroke-width = "3" fill = "none" />	<path d = "M382 180 L382 136 L338 136 L338 180 L382 180 Z" stroke = "#000000" stroke-width = "3" fill = "none" />    <line x1="360" y1="158" x2="349" y2="158" style="stroke:#000000;stroke-width:3" />
<circle cx="349" cy = "158" r = "3" stroke = "#000000" stroke-width = "3" fill = "#000000" />
    <line x1="360" y1="158" x2="371" y2="158" style="stroke:#000000;stroke-width:3" />
<circle cx="371" cy = "158" r = "3" stroke = "#000000" stroke-width = "3" fill = "#000000" />
	<path d = "M427 180 L427 136 L382 136 L382 180 L427 180 Z" stroke = "#000000" stroke-width = "3" fill = "none" />	<path d = "M416 153 L416 164 L405 164 L405 169 L399 164 L393 158 L399 153 L405 147 L405 153 L416 153 Z" stroke = "#000000" stroke-width = "3" fill = "none" />	<path d = "M471 180 L471 136 L427 136 L427 180 L471 180 Z" stroke = "#000000" stroke-width = "3" fill = "none" />	<path d = "M460 153 L460 164 L449 164 L449 169 L443 164 L438 158 L443 153 L449 147 L449 153 L460 153 Z" stroke = "#000000" stroke-width = "3" fill = "none" />	<path d = "M515 180 L515 136 L471 136 L471 180 L515 180 Z" stroke = "#000000" stroke-width = "3" fill = "none" />    <line x1="493" y1="158" x2="482" y2="158" style="stroke:#000000;stroke-width:3" />
<circle cx="482" cy = "158" r = "3" stroke = "#000000" stroke-width = "3" fill = "#000000" />
    <line x1="493" y1="158" x2="504" y2="158" style="stroke:#000000;stroke-width:3" />
<circle cx="504" cy = "158" r = "3" stroke = "#000000" stroke-width = "3" fill = "#000000" />
	<path d = "M560 180 L560 136 L515 136 L515 180 L560 180 Z" stroke = "#000000" stroke-width = "3" fill = "none" />	<path d = "M548 153 L548 164 L537 164 L537 169 L532 164 L526 158 L532 153 L537 147 L537 153 L548 153 Z" stroke = "#000000" stroke-width = "3" fill = "none" />	<path d = "M117 269 L117 225 L72 225 L72 269 L117 269 Z" stroke = "#000000" stroke-width = "3" fill = "none" />	<path d = "M106 241 L106 252 L95 252 L95 258 L89 252 L83 247 L89 241 L95 236 L95 241 L106 241 Z" stroke = "#000000" stroke-width = "3" fill = "none" />	<path d = "M161 269 L161 225 L117 225 L117 269 L161 269 Z" stroke = "#000000" stroke-width = "3" fill = "none" />    <line x1="139" y1="247" x2="128" y2="247" style="stroke:#000000;stroke-width:3" />
<circle cx="128" cy = "247" r = "3" stroke = "#000000" stroke-width = "3" fill = "#000000" />
    <line x1="139" y1="247" x2="150" y2="247" style="stroke:#000000;stroke-width:3" />
<circle cx="150" cy = "247" r = "3" stroke = "#000000" stroke-width = "3" fill = "#000000" />
	<path d = "M205 269 L205 225 L161 225 L161 269 L205 269 Z" stroke = "#000000" stroke-width = "3" fill = "none" />	<path d = "M194 241 L194 252 L183 252 L183 258 L178 252 L172 247 L178 241 L183 236 L183 241 L194 241 Z" stroke = "#000000" stroke-width = "3" fill = "none" />	<path d = "M250 269 L250 225 L205 225 L205 269 L250 269 Z" stroke = "#000000" stroke-width = "3" fill = "none" />    <line x1="227" y1="247" x2="227" y2="236" style="stroke:#000000;stroke-width:3" />
    <line x1="227" y1="247" x2="216" y2="247" style="stroke:#000000;stroke-width:3" />
    <line x1="227" y1="247" x2="227" y2="258" style="stroke:#000000;stroke-width:3" />
    <line x1="227" y1="247" x2="238" y2="247" style="stroke:#000000;stroke-width:3" />
	<path d = "M294 269 L294 225 L250 225 L250 269 L294 269 Z" stroke = "#000000" stroke-width = "3" fill = "none" />    <line x1="272" y1="247" x2="272" y2="236" style="stroke:#000000;stroke-width:3" />
    <line x1="272" y1="247" x2="261" y2="247" style="stroke:#000000;stroke-width:3" />
    <line x1="272" y1="247" x2="272" y2="258" style="stroke:#000000;stroke-width:3" />
    <line x1="272" y1="247" x2="283" y2="247" style="stroke:#000000;stroke-width:3" />
	<path d = "M338 269 L338 225 L294 225 L294 269 L338 269 Z" stroke = "#000000" stroke-width = "3" fill = "none" />    <line x1="316" y1="247" x2="316" y2="236" style="stroke:#000000;stroke-width:3" />
    <line x1="316" y1="247" x2="305" y2="247" style="stroke:#000000;stroke-width:3" />
    <line x1="316" y1="247" x2="316" y2="258" style="stroke:#000000;stroke-width:3" />
    <line x1="316" y1="247" x2="327" y2="247" style="stroke:#000000;stroke-width:3" />
	<path d = "M382 269 L382 225 L338 225 L338 269 L382 269 Z" stroke = "#000000" stroke-width = "3" fill = "none" />	<path d = "M349 252 L349 241 L360 241 L360 236 L366 241 L371 247 L366 252 L360 258 L360 252 L349 252 Z" stroke = "#000000" stroke-width = "3" fill = "none" /><circle cx="405" cy = "247" r = "11.072256250000033" stroke = "#000000" stroke-width = "3" fill = "none" />
</svg>