<svg width="600" height="400" viewbox = "0 0 600 400"  xmlns="http://www.w3.org/2000/svg">
<!--<json>{
  "glyph": "0321,0330,0330,0332,0336,0332,0330,01222,01072,01333,01342,01336,01332,01342,01336,01332,01342,01333,01333,0331,0332,0332,0332,0332,0332,0332,0332,0332,0332,0332,0332,0332,0331,0333,01342,01336,01333,01342,01332,01332,01342,01332,01332,01342,01332,0331,0332,0332,0332,0332,0332,0332,0332,0332,0332,0332,0332,0331,01332,01342,01332,01337,01337,01337,01333,0336,0330,0333,0336,0341,0337,0331,0333,0337,",
  "x0": 172.01499814083706,
  "y0": 363.20530548249985,
  "unit": 88.57805000000006,
  "width": 600,
  "height": 400,
  "style": {
    "color0": "black",
    "fill0": "black",
    "line0": 1,
    "color1": "black",
    "fill1": "black",
    "line1": 5,
    "color2": "red",
    "fill2": "red",
    "line2": 1,
    "color3": "#FF7900",
    "fill3": "#FF7900",
    "line3": 1,
    "color4": "yellow",
    "fill4": "yellow",
    "line4": 1,
    "color5": "green",
    "fill5": "green",
    "line5": 1,
    "color6": "blue",
    "fill6": "blue",
    "line6": 1,
    "color7": "purple",
    "fill7": "purple",
    "line7": 1
  },
  "shapes": [
    "0220:0333,0342,",
    "0221:0316,0336,0313,0336,0220,0220,0220,0220,0220,0337,0342,0336,0220,0220,0220,0220,0333,0337,0342,0336,0337,0316,0337,0313,",
    "0222:0333,0342,0336,0332,0342,0336,0332,0342,0333,0333,0342,0336,0333,0342,0332,0332,0342,0332,0332,0342,0332,0332,0342,0332,0337,0337,0337,0333,",
    "0223:0222,0222,0222,0222,0222,0222,0334,0222,0334,0221,0221,0221,0221,0221,0221,0334,0221,0334,",
    "0224:0362,0203,0335,0203,0203,0203,0203,0203,0203,0335,0203,0335,0203,0203,0203,0203,0203,0203,0354,0335,",
    "0225:0223,0322,0224,",
    "01220:0333,0200,0332,0336,0220,0333,0337,",
    "01221:0221,0200,",
    "01222:0222,0200,",
    "01223:0333,0200,0332,0336,0330,0336,0336,0331,0333,0330,0223,0331,0331,0331,0331,0332,0337,0337,0337,0333,",
    "01224:0333,0200,0332,0336,0330,0336,0336,0331,0333,0330,0224,0332,0337,0337,0331,0337,0333,",
    "01225:0333,0200,",
    "01226:0333,0200,",
    "01227:0333,0200,",
    "01230:0333,0200,",
    "01231:0333,0200,",
    "01232:0333,0200,",
    "01233:0333,0200,",
    "01234:0333,0200,",
    "01235:0333,0200,",
    "01236:0333,0200,",
    "01237:0333,0200,",
    "0240:0220,0336,0331,0333,0336,0321,0335,0342,0335,0335,0342,0335,0330,0330,0332,0332,0337,0337,",
    "01240:0333,0200,0336,0330,0332,0210,0240,0211,0333,0331,0337,",
    "0241:0220,0336,0321,0343,0332,0350,0335,0336,0342,0334,0334,0342,0335,0304,0337,0333,0337,",
    "01241:0333,0200,0336,0332,0330,0210,0241,0211,0333,0331,0337,",
    "0242:0220,0321,0336,0343,0333,0336,0350,0335,0342,0334,0334,0342,0335,0337,0304,0332,0337,",
    "01242:0333,0200,0336,0330,0332,0210,0242,0211,0333,0331,0337,",
    "0243:0220,0336,0331,0332,0336,0321,0343,0332,0350,0334,0336,0342,0335,0335,0342,0337,0334,0334,0335,0304,0332,0330,0330,0337,0337,0333,",
    "01243:0333,0200,0336,0330,0332,0210,0243,0211,0333,0331,0337,",
    "0244:0220,0336,0331,0333,0336,0321,0343,0333,0350,0336,0335,0342,0334,0334,0342,0335,0337,0304,0333,0330,0330,0337,0337,0332,",
    "01244:0333,0200,0336,0330,0332,0210,0244,0211,0333,0331,0337,",
    "0245:0210,0332,0332,0362,0335,0203,0203,0203,0203,0334,0203,0363,0332,0332,0331,0211,",
    "01245:0333,0200,0336,0330,0332,0336,0245,0337,0333,0331,0337,",
    "0246:0210,0332,0332,0335,0306,0336,0330,0335,0335,0335,0321,0362,0203,0335,0335,0203,0364,0331,0350,0335,0337,0366,0333,0333,0333,0333,0334,0334,0334,0334,0367,0335,0336,0342,0334,0334,0342,0330,0330,0330,0330,0335,0335,0335,0304,0337,0211,",
    "01246:0333,0200,0336,0330,0332,0336,0246,",
    "0247:0330,0332,0336,0332,0336,0221,0333,0333,0333,0222,0333,0333,0333,0223,0333,0333,0333,0225,0333,0331,0331,0331,0332,0332,0332,0332,0332,0332,0332,0332,0332,0332,0332,0332,0333,0333,0226,0331,0331,0331,0333,0333,0333,0333,0333,0333,0333,0333,0333,0333,0333,0333,0333,0330,0333,0330,0330,0333,0330,0331,0332,0332,0332,0332,0332,0332,0332,0332,0332,0332,0332,0332,0227,0333,0333,0333,0230,0333,0331,0331,0331,0331,0332,0332,0332,0330,0332,0332,0332,0332,0332,0332,0333,0333,0231,0333,0333,0333,0232,0331,0333,0330,0333,0333,0233,0333,0333,0333,0234,0330,0330,0332,0330,0332,0332,0337,0337,",
    "01247:0333,0200,0336,0330,0332,0220,0336,0247,0337,0331,0333,0337,"
  ]
}</json>-->    <line x1="83" y1="142" x2="83" y2="97" style="stroke:#000000;stroke-width:5" />
    <line x1="61" y1="142" x2="61" y2="120" style="stroke:#000000;stroke-width:5" />
    <line x1="50" y1="142" x2="50" y2="131" style="stroke:#000000;stroke-width:5" />
    <line x1="72" y1="142" x2="72" y2="131" style="stroke:#000000;stroke-width:5" />
    <line x1="78" y1="142" x2="78" y2="136" style="stroke:#000000;stroke-width:5" />
    <line x1="67" y1="142" x2="67" y2="136" style="stroke:#000000;stroke-width:5" />
    <line x1="56" y1="142" x2="56" y2="136" style="stroke:#000000;stroke-width:5" />
    <line x1="45" y1="142" x2="45" y2="136" style="stroke:#000000;stroke-width:5" />
	<path d = "M83 142 L83 97 L39 97 L39 142 L83 142 Z" stroke = "#000000" stroke-width = "5" fill = "none" />    <circle cx="100" cy = "136" r = "2.768064062500002" stroke = "#000000" stroke-width = "5" fill = "#000000" />
    <circle cx="95" cy = "136" r = "2.768064062500002" stroke = "#000000" stroke-width = "5" fill = "#000000" />
    <circle cx="95" cy = "131" r = "2.768064062500002" stroke = "#000000" stroke-width = "5" fill = "#000000" />
    <circle cx="100" cy = "131" r = "2.768064062500002" stroke = "#000000" stroke-width = "5" fill = "#000000" />
    <circle cx="100" cy = "120" r = "2.768064062500002" stroke = "#000000" stroke-width = "5" fill = "#000000" />
    <circle cx="95" cy = "120" r = "2.768064062500002" stroke = "#000000" stroke-width = "5" fill = "#000000" />
    <circle cx="95" cy = "114" r = "2.768064062500002" stroke = "#000000" stroke-width = "5" fill = "#000000" />
    <circle cx="100" cy = "114" r = "2.768064062500002" stroke = "#000000" stroke-width = "5" fill = "#000000" />
	<path d = "M161 142 L161 97 L117 97 L117 142 L161 142 Z" stroke = "#000000" stroke-width = "5" fill = "none" />	<path d = "M128 125 L128 114 L139 114 L139 109 L144 114 L150 120 L144 125 L139 131 L139 125 L128 125 Z" stroke = "#000000" stroke-width = "5" fill = "none" />	<path d = "M205 142 L205 97 L161 97 L161 142 L205 142 Z" stroke = "#000000" stroke-width = "5" fill = "none" />    <line x1="183" y1="120" x2="172" y2="120" style="stroke:#000000;stroke-width:5" />
<circle cx="172" cy = "120" r = "5" stroke = "#000000" stroke-width = "5" fill = "#000000" />
    <line x1="183" y1="120" x2="194" y2="120" style="stroke:#000000;stroke-width:5" />
<circle cx="194" cy = "120" r = "5" stroke = "#000000" stroke-width = "5" fill = "#000000" />
	<path d = "M250 142 L250 97 L205 97 L205 142 L250 142 Z" stroke = "#000000" stroke-width = "5" fill = "none" />    <line x1="238" y1="120" x2="216" y2="120" style="stroke:#000000;stroke-width:5" />
	<path d = "M294 142 L294 97 L250 97 L250 142 L294 142 Z" stroke = "#000000" stroke-width = "5" fill = "none" />	<path d = "M283 114 L283 125 L272 125 L272 131 L266 125 L261 120 L266 114 L272 109 L272 114 L283 114 Z" stroke = "#000000" stroke-width = "5" fill = "none" />	<path d = "M338 142 L338 97 L294 97 L294 142 L338 142 Z" stroke = "#000000" stroke-width = "5" fill = "none" />    <line x1="316" y1="120" x2="305" y2="120" style="stroke:#000000;stroke-width:5" />
<circle cx="305" cy = "120" r = "5" stroke = "#000000" stroke-width = "5" fill = "#000000" />
    <line x1="316" y1="120" x2="327" y2="120" style="stroke:#000000;stroke-width:5" />
<circle cx="327" cy = "120" r = "5" stroke = "#000000" stroke-width = "5" fill = "#000000" />
	<path d = "M382 142 L382 97 L338 97 L338 142 L382 142 Z" stroke = "#000000" stroke-width = "5" fill = "none" />    <line x1="371" y1="120" x2="349" y2="120" style="stroke:#000000;stroke-width:5" />
	<path d = "M427 142 L427 97 L382 97 L382 142 L427 142 Z" stroke = "#000000" stroke-width = "5" fill = "none" />	<path d = "M416 114 L416 125 L405 125 L405 131 L399 125 L393 120 L399 114 L405 109 L405 114 L416 114 Z" stroke = "#000000" stroke-width = "5" fill = "none" />	<path d = "M471 142 L471 97 L427 97 L427 142 L471 142 Z" stroke = "#000000" stroke-width = "5" fill = "none" />    <line x1="449" y1="120" x2="438" y2="120" style="stroke:#000000;stroke-width:5" />
<circle cx="438" cy = "120" r = "5" stroke = "#000000" stroke-width = "5" fill = "#000000" />
    <line x1="449" y1="120" x2="460" y2="120" style="stroke:#000000;stroke-width:5" />
<circle cx="460" cy = "120" r = "5" stroke = "#000000" stroke-width = "5" fill = "#000000" />
	<path d = "M515 142 L515 97 L471 97 L471 142 L515 142 Z" stroke = "#000000" stroke-width = "5" fill = "none" />	<path d = "M482 125 L482 114 L493 114 L493 109 L499 114 L504 120 L499 125 L493 131 L493 125 L482 125 Z" stroke = "#000000" stroke-width = "5" fill = "none" />	<path d = "M560 142 L560 97 L515 97 L515 142 L560 142 Z" stroke = "#000000" stroke-width = "5" fill = "none" />	<path d = "M526 125 L526 114 L537 114 L537 109 L543 114 L548 120 L543 125 L537 131 L537 125 L526 125 Z" stroke = "#000000" stroke-width = "5" fill = "none" />	<path d = "M117 230 L117 186 L72 186 L72 230 L117 230 Z" stroke = "#000000" stroke-width = "5" fill = "none" />    <line x1="95" y1="208" x2="83" y2="208" style="stroke:#000000;stroke-width:5" />
<circle cx="83" cy = "208" r = "5" stroke = "#000000" stroke-width = "5" fill = "#000000" />
    <line x1="95" y1="208" x2="106" y2="208" style="stroke:#000000;stroke-width:5" />
<circle cx="106" cy = "208" r = "5" stroke = "#000000" stroke-width = "5" fill = "#000000" />
	<path d = "M161 230 L161 186 L117 186 L117 230 L161 230 Z" stroke = "#000000" stroke-width = "5" fill = "none" />    <line x1="150" y1="208" x2="128" y2="208" style="stroke:#000000;stroke-width:5" />
	<path d = "M205 230 L205 186 L161 186 L161 230 L205 230 Z" stroke = "#000000" stroke-width = "5" fill = "none" />	<path d = "M172 214 L172 203 L183 203 L183 197 L189 203 L194 208 L189 214 L183 219 L183 214 L172 214 Z" stroke = "#000000" stroke-width = "5" fill = "none" />	<path d = "M250 230 L250 186 L205 186 L205 230 L250 230 Z" stroke = "#000000" stroke-width = "5" fill = "none" />    <line x1="227" y1="208" x2="216" y2="208" style="stroke:#000000;stroke-width:5" />
<circle cx="216" cy = "208" r = "5" stroke = "#000000" stroke-width = "5" fill = "#000000" />
    <line x1="227" y1="208" x2="238" y2="208" style="stroke:#000000;stroke-width:5" />
<circle cx="238" cy = "208" r = "5" stroke = "#000000" stroke-width = "5" fill = "#000000" />
	<path d = "M294 230 L294 186 L250 186 L250 230 L294 230 Z" stroke = "#000000" stroke-width = "5" fill = "none" />	<path d = "M283 203 L283 214 L272 214 L272 219 L266 214 L261 208 L266 203 L272 197 L272 203 L283 203 Z" stroke = "#000000" stroke-width = "5" fill = "none" />	<path d = "M338 230 L338 186 L294 186 L294 230 L338 230 Z" stroke = "#000000" stroke-width = "5" fill = "none" />	<path d = "M327 203 L327 214 L316 214 L316 219 L310 214 L305 208 L310 203 L316 197 L316 203 L327 203 Z" stroke = "#000000" stroke-width = "5" fill = "none" />	<path d = "M382 230 L382 186 L338 186 L338 230 L382 230 Z" stroke = "#000000" stroke-width = "5" fill = "none" />    <line x1="360" y1="208" x2="349" y2="208" style="stroke:#000000;stroke-width:5" />
<circle cx="349" cy = "208" r = "5" stroke = "#000000" stroke-width = "5" fill = "#000000" />
    <line x1="360" y1="208" x2="371" y2="208" style="stroke:#000000;stroke-width:5" />
<circle cx="371" cy = "208" r = "5" stroke = "#000000" stroke-width = "5" fill = "#000000" />
	<path d = "M427 230 L427 186 L382 186 L382 230 L427 230 Z" stroke = "#000000" stroke-width = "5" fill = "none" />	<path d = "M416 203 L416 214 L405 214 L405 219 L399 214 L393 208 L399 203 L405 197 L405 203 L416 203 Z" stroke = "#000000" stroke-width = "5" fill = "none" />	<path d = "M471 230 L471 186 L427 186 L427 230 L471 230 Z" stroke = "#000000" stroke-width = "5" fill = "none" />	<path d = "M460 203 L460 214 L449 214 L449 219 L443 214 L438 208 L443 203 L449 197 L449 203 L460 203 Z" stroke = "#000000" stroke-width = "5" fill = "none" />	<path d = "M515 230 L515 186 L471 186 L471 230 L515 230 Z" stroke = "#000000" stroke-width = "5" fill = "none" />    <line x1="493" y1="208" x2="482" y2="208" style="stroke:#000000;stroke-width:5" />
<circle cx="482" cy = "208" r = "5" stroke = "#000000" stroke-width = "5" fill = "#000000" />
    <line x1="493" y1="208" x2="504" y2="208" style="stroke:#000000;stroke-width:5" />
<circle cx="504" cy = "208" r = "5" stroke = "#000000" stroke-width = "5" fill = "#000000" />
	<path d = "M560 230 L560 186 L515 186 L515 230 L560 230 Z" stroke = "#000000" stroke-width = "5" fill = "none" />	<path d = "M548 203 L548 214 L537 214 L537 219 L532 214 L526 208 L532 203 L537 197 L537 203 L548 203 Z" stroke = "#000000" stroke-width = "5" fill = "none" />	<path d = "M117 319 L117 275 L72 275 L72 319 L117 319 Z" stroke = "#000000" stroke-width = "5" fill = "none" />	<path d = "M106 291 L106 302 L95 302 L95 308 L89 302 L83 297 L89 291 L95 286 L95 291 L106 291 Z" stroke = "#000000" stroke-width = "5" fill = "none" />	<path d = "M161 319 L161 275 L117 275 L117 319 L161 319 Z" stroke = "#000000" stroke-width = "5" fill = "none" />    <line x1="139" y1="297" x2="128" y2="297" style="stroke:#000000;stroke-width:5" />
<circle cx="128" cy = "297" r = "5" stroke = "#000000" stroke-width = "5" fill = "#000000" />
    <line x1="139" y1="297" x2="150" y2="297" style="stroke:#000000;stroke-width:5" />
<circle cx="150" cy = "297" r = "5" stroke = "#000000" stroke-width = "5" fill = "#000000" />
	<path d = "M205 319 L205 275 L161 275 L161 319 L205 319 Z" stroke = "#000000" stroke-width = "5" fill = "none" />	<path d = "M194 291 L194 302 L183 302 L183 308 L178 302 L172 297 L178 291 L183 286 L183 291 L194 291 Z" stroke = "#000000" stroke-width = "5" fill = "none" />	<path d = "M250 319 L250 275 L205 275 L205 319 L250 319 Z" stroke = "#000000" stroke-width = "5" fill = "none" />    <line x1="227" y1="297" x2="227" y2="286" style="stroke:#000000;stroke-width:5" />
    <line x1="227" y1="297" x2="216" y2="297" style="stroke:#000000;stroke-width:5" />
    <line x1="227" y1="297" x2="227" y2="308" style="stroke:#000000;stroke-width:5" />
    <line x1="227" y1="297" x2="238" y2="297" style="stroke:#000000;stroke-width:5" />
	<path d = "M294 319 L294 275 L250 275 L250 319 L294 319 Z" stroke = "#000000" stroke-width = "5" fill = "none" />    <line x1="272" y1="297" x2="272" y2="286" style="stroke:#000000;stroke-width:5" />
    <line x1="272" y1="297" x2="261" y2="297" style="stroke:#000000;stroke-width:5" />
    <line x1="272" y1="297" x2="272" y2="308" style="stroke:#000000;stroke-width:5" />
    <line x1="272" y1="297" x2="283" y2="297" style="stroke:#000000;stroke-width:5" />
	<path d = "M338 319 L338 275 L294 275 L294 319 L338 319 Z" stroke = "#000000" stroke-width = "5" fill = "none" />    <line x1="316" y1="297" x2="316" y2="286" style="stroke:#000000;stroke-width:5" />
    <line x1="316" y1="297" x2="305" y2="297" style="stroke:#000000;stroke-width:5" />
    <line x1="316" y1="297" x2="316" y2="308" style="stroke:#000000;stroke-width:5" />
    <line x1="316" y1="297" x2="327" y2="297" style="stroke:#000000;stroke-width:5" />
	<path d = "M382 319 L382 275 L338 275 L338 319 L382 319 Z" stroke = "#000000" stroke-width = "5" fill = "none" />	<path d = "M349 302 L349 291 L360 291 L360 286 L366 291 L371 297 L366 302 L360 308 L360 302 L349 302 Z" stroke = "#000000" stroke-width = "5" fill = "none" /><circle cx="405" cy = "297" r = "11.072256250000033" stroke = "#000000" stroke-width = "5" fill = "none" />
</svg>