<svg width="600" height="250" viewbox = "0 0 600 250"  xmlns="http://www.w3.org/2000/svg">
<!--<json>{
  "glyph": "0333,0225,0336,0333,0326,0336,0330,0333,0330,0332,01111,01040,01101,01115,01040,01124,01110,01105,01040,01125,01116,01111,01124,",
  "x0": -34.7434200000003,
  "y0": 177.61085500000007,
  "unit": 88.57805000000006,
  "width": 600,
  "height": 250,
  "style": {
    "color0": "black",
    "fill0": "black",
    "line0": 1,
    "color1": "black",
    "fill1": "black",
    "line1": 5,
    "color2": "red",
    "fill2": "red",
    "line2": 1,
    "color3": "#FF7900",
    "fill3": "#FF7900",
    "line3": 1,
    "color4": "yellow",
    "fill4": "yellow",
    "line4": 1,
    "color5": "green",
    "fill5": "green",
    "line5": 1,
    "color6": "blue",
    "fill6": "blue",
    "line6": 1,
    "color7": "purple",
    "fill7": "purple",
    "line7": 1
  },
  "shapes": [
    "0220:0333,0342,",
    "0221:0316,0336,0313,0336,0220,0220,0220,0220,0220,0337,0342,0336,0220,0220,0220,0220,0333,0337,0342,0336,0337,0316,0337,0313,",
    "0222:0333,0342,0336,0332,0342,0336,0332,0342,0333,0333,0342,0336,0333,0342,0332,0332,0342,0332,0332,0342,0332,0332,0342,0332,0337,0337,0337,0333,",
    "0223:0222,0222,0222,0222,0222,0222,0334,0222,0334,0221,0221,0221,0221,0221,0221,0334,0221,0334,",
    "0224:0362,0203,0335,0203,0203,0203,0203,0203,0203,0335,0203,0335,0203,0203,0203,0203,0203,0203,0354,0335,",
    "0225:0223,0322,0224,",
    "01220:0333,0200,0332,0336,0220,0333,0337,",
    "01221:0221,0200,",
    "01222:0222,0200,",
    "01223:0333,0200,0332,0336,0330,0336,0336,0331,0333,0330,0223,0331,0331,0331,0331,0332,0337,0337,0337,0333,",
    "01224:0333,0200,0332,0336,0330,0336,0336,0331,0333,0330,0224,0332,0337,0337,0331,0337,0333,",
    "01225:0333,0200,",
    "01226:0333,0200,",
    "01227:0333,0200,",
    "01230:0333,0200,",
    "01231:0333,0200,",
    "01232:0333,0200,",
    "01233:0333,0200,",
    "01234:0333,0200,",
    "01235:0333,0200,",
    "01236:0333,0200,",
    "01237:0333,0200,",
    "0240:0220,0336,0331,0333,0336,0321,0335,0342,0335,0335,0342,0335,0330,0330,0332,0332,0337,0337,",
    "01240:0333,0200,0336,0330,0332,0210,0240,0211,0333,0331,0337,",
    "0241:0220,0336,0321,0343,0332,0350,0335,0336,0342,0334,0334,0342,0335,0304,0337,0333,0337,",
    "01241:0333,0200,0336,0332,0330,0210,0241,0211,0333,0331,0337,",
    "0242:0220,0321,0336,0343,0333,0336,0350,0335,0342,0334,0334,0342,0335,0337,0304,0332,0337,",
    "01242:0333,0200,0336,0330,0332,0210,0242,0211,0333,0331,0337,",
    "0243:0220,0336,0331,0332,0336,0321,0343,0332,0350,0334,0336,0342,0335,0335,0342,0337,0334,0334,0335,0304,0332,0330,0330,0337,0337,0333,",
    "01243:0333,0200,0336,0330,0332,0210,0243,0211,0333,0331,0337,",
    "0244:0220,0336,0331,0333,0336,0321,0343,0333,0350,0336,0335,0342,0334,0334,0342,0335,0337,0304,0333,0330,0330,0337,0337,0332,",
    "01244:0333,0200,0336,0330,0332,0210,0244,0211,0333,0331,0337,",
    "0245:0210,0332,0332,0362,0335,0203,0203,0203,0203,0334,0203,0363,0332,0332,0331,0211,",
    "01245:0333,0200,0336,0330,0332,0336,0245,0337,0333,0331,0337,",
    "0246:0210,0332,0332,0335,0306,0336,0330,0335,0335,0335,0321,0362,0203,0335,0335,0203,0364,0331,0350,0335,0337,0366,0333,0333,0333,0333,0334,0334,0334,0334,0367,0335,0336,0342,0334,0334,0342,0330,0330,0330,0330,0335,0335,0335,0304,0337,0211,",
    "01246:0333,0200,0336,0330,0332,0336,0246,",
    "0247:0330,0332,0336,0332,0336,0221,0333,0333,0333,0222,0333,0333,0333,0223,0333,0333,0333,0225,0333,0331,0331,0331,0332,0332,0332,0332,0332,0332,0332,0332,0332,0332,0332,0332,0333,0333,0226,0331,0331,0331,0333,0333,0333,0333,0333,0333,0333,0333,0333,0333,0333,0333,0333,0330,0333,0330,0330,0333,0330,0331,0332,0332,0332,0332,0332,0332,0332,0332,0332,0332,0332,0332,0227,0333,0333,0333,0230,0333,0331,0331,0331,0331,0332,0332,0332,0330,0332,0332,0332,0332,0332,0332,0333,0333,0231,0333,0333,0333,0232,0331,0333,0330,0333,0333,0233,0333,0333,0333,0234,0330,0330,0332,0330,0332,0332,0337,0337,",
    "01247:0333,0200,0336,0330,0332,0220,0336,0247,0337,0331,0333,0337,"
  ]
}</json>-->    <line x1="142" y1="178" x2="142" y2="89" style="stroke:#000000;stroke-width:1" />
    <line x1="98" y1="178" x2="98" y2="133" style="stroke:#000000;stroke-width:1" />
    <line x1="76" y1="178" x2="76" y2="155" style="stroke:#000000;stroke-width:1" />
    <line x1="120" y1="178" x2="120" y2="155" style="stroke:#000000;stroke-width:1" />
    <line x1="131" y1="178" x2="131" y2="167" style="stroke:#000000;stroke-width:1" />
    <line x1="109" y1="178" x2="109" y2="167" style="stroke:#000000;stroke-width:1" />
    <line x1="87" y1="178" x2="87" y2="167" style="stroke:#000000;stroke-width:1" />
    <line x1="65" y1="178" x2="65" y2="167" style="stroke:#000000;stroke-width:1" />
    <line x1="231" y1="178" x2="231" y2="89" style="stroke:#000000;stroke-width:1" />
    <line x1="187" y1="178" x2="187" y2="133" style="stroke:#000000;stroke-width:1" />
    <line x1="165" y1="178" x2="165" y2="155" style="stroke:#000000;stroke-width:1" />
    <line x1="209" y1="178" x2="209" y2="155" style="stroke:#000000;stroke-width:1" />
    <line x1="220" y1="178" x2="220" y2="167" style="stroke:#000000;stroke-width:1" />
    <line x1="198" y1="178" x2="198" y2="167" style="stroke:#000000;stroke-width:1" />
    <line x1="176" y1="178" x2="176" y2="167" style="stroke:#000000;stroke-width:1" />
    <line x1="153" y1="178" x2="153" y2="167" style="stroke:#000000;stroke-width:1" />
    <line x1="320" y1="178" x2="320" y2="89" style="stroke:#000000;stroke-width:1" />
    <line x1="275" y1="178" x2="275" y2="133" style="stroke:#000000;stroke-width:1" />
    <line x1="253" y1="178" x2="253" y2="155" style="stroke:#000000;stroke-width:1" />
    <line x1="297" y1="178" x2="297" y2="155" style="stroke:#000000;stroke-width:1" />
    <line x1="308" y1="178" x2="308" y2="167" style="stroke:#000000;stroke-width:1" />
    <line x1="286" y1="178" x2="286" y2="167" style="stroke:#000000;stroke-width:1" />
    <line x1="264" y1="178" x2="264" y2="167" style="stroke:#000000;stroke-width:1" />
    <line x1="242" y1="178" x2="242" y2="167" style="stroke:#000000;stroke-width:1" />
    <line x1="408" y1="178" x2="408" y2="89" style="stroke:#000000;stroke-width:1" />
    <line x1="364" y1="178" x2="364" y2="133" style="stroke:#000000;stroke-width:1" />
    <line x1="342" y1="178" x2="342" y2="155" style="stroke:#000000;stroke-width:1" />
    <line x1="386" y1="178" x2="386" y2="155" style="stroke:#000000;stroke-width:1" />
    <line x1="397" y1="178" x2="397" y2="167" style="stroke:#000000;stroke-width:1" />
    <line x1="375" y1="178" x2="375" y2="167" style="stroke:#000000;stroke-width:1" />
    <line x1="353" y1="178" x2="353" y2="167" style="stroke:#000000;stroke-width:1" />
    <line x1="331" y1="178" x2="331" y2="167" style="stroke:#000000;stroke-width:1" />
    <line x1="497" y1="178" x2="497" y2="89" style="stroke:#000000;stroke-width:1" />
    <line x1="452" y1="178" x2="452" y2="133" style="stroke:#000000;stroke-width:1" />
    <line x1="430" y1="178" x2="430" y2="155" style="stroke:#000000;stroke-width:1" />
    <line x1="475" y1="178" x2="475" y2="155" style="stroke:#000000;stroke-width:1" />
    <line x1="486" y1="178" x2="486" y2="167" style="stroke:#000000;stroke-width:1" />
    <line x1="464" y1="178" x2="464" y2="167" style="stroke:#000000;stroke-width:1" />
    <line x1="441" y1="178" x2="441" y2="167" style="stroke:#000000;stroke-width:1" />
    <line x1="419" y1="178" x2="419" y2="167" style="stroke:#000000;stroke-width:1" />
    <line x1="585" y1="178" x2="585" y2="89" style="stroke:#000000;stroke-width:1" />
    <line x1="541" y1="178" x2="541" y2="133" style="stroke:#000000;stroke-width:1" />
    <line x1="519" y1="178" x2="519" y2="155" style="stroke:#000000;stroke-width:1" />
    <line x1="563" y1="178" x2="563" y2="155" style="stroke:#000000;stroke-width:1" />
    <line x1="574" y1="178" x2="574" y2="167" style="stroke:#000000;stroke-width:1" />
    <line x1="552" y1="178" x2="552" y2="167" style="stroke:#000000;stroke-width:1" />
    <line x1="530" y1="178" x2="530" y2="167" style="stroke:#000000;stroke-width:1" />
    <line x1="508" y1="178" x2="508" y2="167" style="stroke:#000000;stroke-width:1" />
    <line x1="585" y1="89" x2="497" y2="89" style="stroke:#000000;stroke-width:1" />
    <line x1="585" y1="133" x2="541" y2="133" style="stroke:#000000;stroke-width:1" />
    <line x1="585" y1="155" x2="563" y2="155" style="stroke:#000000;stroke-width:1" />
    <line x1="585" y1="111" x2="563" y2="111" style="stroke:#000000;stroke-width:1" />
    <line x1="585" y1="100" x2="574" y2="100" style="stroke:#000000;stroke-width:1" />
    <line x1="585" y1="122" x2="574" y2="122" style="stroke:#000000;stroke-width:1" />
    <line x1="585" y1="144" x2="574" y2="144" style="stroke:#000000;stroke-width:1" />
    <line x1="585" y1="167" x2="574" y2="167" style="stroke:#000000;stroke-width:1" />
    <line x1="576" y1="89" x2="576" y2="98" style="stroke:#000000;stroke-width:1" />
    <line x1="568" y1="89" x2="568" y2="98" style="stroke:#000000;stroke-width:1" />
    <line x1="559" y1="89" x2="559" y2="98" style="stroke:#000000;stroke-width:1" />
    <line x1="550" y1="89" x2="550" y2="98" style="stroke:#000000;stroke-width:1" />
    <line x1="541" y1="89" x2="541" y2="98" style="stroke:#000000;stroke-width:1" />
    <line x1="541" y1="89" x2="541" y2="107" style="stroke:#000000;stroke-width:1" />
    <line x1="532" y1="89" x2="532" y2="98" style="stroke:#000000;stroke-width:1" />
    <line x1="523" y1="89" x2="523" y2="98" style="stroke:#000000;stroke-width:1" />
    <line x1="514" y1="89" x2="514" y2="98" style="stroke:#000000;stroke-width:1" />
    <line x1="506" y1="89" x2="506" y2="98" style="stroke:#000000;stroke-width:1" />
    <line x1="497" y1="89" x2="497" y2="107" style="stroke:#000000;stroke-width:1" />
    <line x1="488" y1="89" x2="488" y2="98" style="stroke:#000000;stroke-width:1" />
    <line x1="479" y1="89" x2="479" y2="98" style="stroke:#000000;stroke-width:1" />
    <line x1="470" y1="89" x2="470" y2="98" style="stroke:#000000;stroke-width:1" />
    <line x1="461" y1="89" x2="461" y2="98" style="stroke:#000000;stroke-width:1" />
    <line x1="452" y1="89" x2="452" y2="98" style="stroke:#000000;stroke-width:1" />
    <line x1="452" y1="89" x2="452" y2="107" style="stroke:#000000;stroke-width:1" />
    <line x1="444" y1="89" x2="444" y2="98" style="stroke:#000000;stroke-width:1" />
    <line x1="435" y1="89" x2="435" y2="98" style="stroke:#000000;stroke-width:1" />
    <line x1="426" y1="89" x2="426" y2="98" style="stroke:#000000;stroke-width:1" />
    <line x1="417" y1="89" x2="417" y2="98" style="stroke:#000000;stroke-width:1" />
    <line x1="408" y1="89" x2="408" y2="107" style="stroke:#000000;stroke-width:1" />
    <line x1="399" y1="89" x2="399" y2="98" style="stroke:#000000;stroke-width:1" />
    <line x1="390" y1="89" x2="390" y2="98" style="stroke:#000000;stroke-width:1" />
    <line x1="382" y1="89" x2="382" y2="98" style="stroke:#000000;stroke-width:1" />
    <line x1="373" y1="89" x2="373" y2="98" style="stroke:#000000;stroke-width:1" />
    <line x1="364" y1="89" x2="364" y2="98" style="stroke:#000000;stroke-width:1" />
    <line x1="364" y1="89" x2="364" y2="107" style="stroke:#000000;stroke-width:1" />
    <line x1="355" y1="89" x2="355" y2="98" style="stroke:#000000;stroke-width:1" />
    <line x1="346" y1="89" x2="346" y2="98" style="stroke:#000000;stroke-width:1" />
    <line x1="337" y1="89" x2="337" y2="98" style="stroke:#000000;stroke-width:1" />
    <line x1="328" y1="89" x2="328" y2="98" style="stroke:#000000;stroke-width:1" />
    <line x1="320" y1="89" x2="320" y2="107" style="stroke:#000000;stroke-width:1" />
    <line x1="311" y1="89" x2="311" y2="98" style="stroke:#000000;stroke-width:1" />
    <line x1="302" y1="89" x2="302" y2="98" style="stroke:#000000;stroke-width:1" />
    <line x1="293" y1="89" x2="293" y2="98" style="stroke:#000000;stroke-width:1" />
    <line x1="284" y1="89" x2="284" y2="98" style="stroke:#000000;stroke-width:1" />
    <line x1="275" y1="89" x2="275" y2="98" style="stroke:#000000;stroke-width:1" />
    <line x1="275" y1="89" x2="275" y2="107" style="stroke:#000000;stroke-width:1" />
    <line x1="266" y1="89" x2="266" y2="98" style="stroke:#000000;stroke-width:1" />
    <line x1="258" y1="89" x2="258" y2="98" style="stroke:#000000;stroke-width:1" />
    <line x1="249" y1="89" x2="249" y2="98" style="stroke:#000000;stroke-width:1" />
    <line x1="240" y1="89" x2="240" y2="98" style="stroke:#000000;stroke-width:1" />
    <line x1="231" y1="89" x2="231" y2="107" style="stroke:#000000;stroke-width:1" />
    <line x1="222" y1="89" x2="222" y2="98" style="stroke:#000000;stroke-width:1" />
    <line x1="213" y1="89" x2="213" y2="98" style="stroke:#000000;stroke-width:1" />
    <line x1="204" y1="89" x2="204" y2="98" style="stroke:#000000;stroke-width:1" />
    <line x1="196" y1="89" x2="196" y2="98" style="stroke:#000000;stroke-width:1" />
    <line x1="187" y1="89" x2="187" y2="98" style="stroke:#000000;stroke-width:1" />
    <line x1="187" y1="89" x2="187" y2="107" style="stroke:#000000;stroke-width:1" />
    <line x1="178" y1="89" x2="178" y2="98" style="stroke:#000000;stroke-width:1" />
    <line x1="169" y1="89" x2="169" y2="98" style="stroke:#000000;stroke-width:1" />
    <line x1="160" y1="89" x2="160" y2="98" style="stroke:#000000;stroke-width:1" />
    <line x1="151" y1="89" x2="151" y2="98" style="stroke:#000000;stroke-width:1" />
    <line x1="142" y1="89" x2="142" y2="107" style="stroke:#000000;stroke-width:1" />
    <line x1="134" y1="89" x2="134" y2="98" style="stroke:#000000;stroke-width:1" />
    <line x1="125" y1="89" x2="125" y2="98" style="stroke:#000000;stroke-width:1" />
    <line x1="116" y1="89" x2="116" y2="98" style="stroke:#000000;stroke-width:1" />
    <line x1="107" y1="89" x2="107" y2="98" style="stroke:#000000;stroke-width:1" />
    <line x1="98" y1="89" x2="98" y2="98" style="stroke:#000000;stroke-width:1" />
    <line x1="98" y1="89" x2="98" y2="107" style="stroke:#000000;stroke-width:1" />
    <line x1="89" y1="89" x2="89" y2="98" style="stroke:#000000;stroke-width:1" />
    <line x1="80" y1="89" x2="80" y2="98" style="stroke:#000000;stroke-width:1" />
    <line x1="72" y1="89" x2="72" y2="98" style="stroke:#000000;stroke-width:1" />
    <line x1="63" y1="89" x2="63" y2="98" style="stroke:#000000;stroke-width:1" />
    <line x1="54" y1="89" x2="54" y2="107" style="stroke:#000000;stroke-width:1" />
    <line x1="54" y1="98" x2="63" y2="98" style="stroke:#000000;stroke-width:1" />
    <line x1="54" y1="107" x2="63" y2="107" style="stroke:#000000;stroke-width:1" />
    <line x1="54" y1="116" x2="63" y2="116" style="stroke:#000000;stroke-width:1" />
    <line x1="54" y1="124" x2="63" y2="124" style="stroke:#000000;stroke-width:1" />
    <line x1="54" y1="133" x2="63" y2="133" style="stroke:#000000;stroke-width:1" />
    <line x1="54" y1="133" x2="72" y2="133" style="stroke:#000000;stroke-width:1" />
    <line x1="54" y1="142" x2="63" y2="142" style="stroke:#000000;stroke-width:1" />
    <line x1="54" y1="151" x2="63" y2="151" style="stroke:#000000;stroke-width:1" />
    <line x1="54" y1="160" x2="63" y2="160" style="stroke:#000000;stroke-width:1" />
    <line x1="54" y1="169" x2="63" y2="169" style="stroke:#000000;stroke-width:1" />
    <line x1="54" y1="178" x2="72" y2="178" style="stroke:#000000;stroke-width:1" />
	<path d = "M54 178 L54 89 L142 89 L231 89 L320 89 L408 89 L497 89 L585 89 L585 178 L497 178 L408 178 L320 178 L231 178 L142 178 L54 178 Z" stroke = "#ff0000" stroke-width = "1" fill = "none" />    <circle cx="104" cy = "133" r = "1.384032031250001" stroke = "#0000ff" stroke-width = "1" fill = "#0000ff" />
    <circle cx="106" cy = "133" r = "1.384032031250001" stroke = "#0000ff" stroke-width = "1" fill = "#0000ff" />
    <circle cx="109" cy = "133" r = "1.384032031250001" stroke = "#0000ff" stroke-width = "1" fill = "#0000ff" />
    <circle cx="106" cy = "131" r = "1.384032031250001" stroke = "#0000ff" stroke-width = "1" fill = "#0000ff" />
    <circle cx="106" cy = "128" r = "1.384032031250001" stroke = "#0000ff" stroke-width = "1" fill = "#0000ff" />
    <circle cx="106" cy = "125" r = "1.384032031250001" stroke = "#0000ff" stroke-width = "1" fill = "#0000ff" />
    <circle cx="106" cy = "122" r = "1.384032031250001" stroke = "#0000ff" stroke-width = "1" fill = "#0000ff" />
    <circle cx="106" cy = "119" r = "1.384032031250001" stroke = "#0000ff" stroke-width = "1" fill = "#0000ff" />
    <circle cx="106" cy = "117" r = "1.384032031250001" stroke = "#0000ff" stroke-width = "1" fill = "#0000ff" />
    <circle cx="104" cy = "117" r = "1.384032031250001" stroke = "#0000ff" stroke-width = "1" fill = "#0000ff" />
    <circle cx="109" cy = "117" r = "1.384032031250001" stroke = "#0000ff" stroke-width = "1" fill = "#0000ff" />
    <circle cx="134" cy = "133" r = "1.384032031250001" stroke = "#0000ff" stroke-width = "1" fill = "#0000ff" />
    <circle cx="134" cy = "131" r = "1.384032031250001" stroke = "#0000ff" stroke-width = "1" fill = "#0000ff" />
    <circle cx="134" cy = "128" r = "1.384032031250001" stroke = "#0000ff" stroke-width = "1" fill = "#0000ff" />
    <circle cx="134" cy = "125" r = "1.384032031250001" stroke = "#0000ff" stroke-width = "1" fill = "#0000ff" />
    <circle cx="134" cy = "122" r = "1.384032031250001" stroke = "#0000ff" stroke-width = "1" fill = "#0000ff" />
    <circle cx="134" cy = "119" r = "1.384032031250001" stroke = "#0000ff" stroke-width = "1" fill = "#0000ff" />
    <circle cx="137" cy = "117" r = "1.384032031250001" stroke = "#0000ff" stroke-width = "1" fill = "#0000ff" />
    <circle cx="140" cy = "117" r = "1.384032031250001" stroke = "#0000ff" stroke-width = "1" fill = "#0000ff" />
    <circle cx="142" cy = "117" r = "1.384032031250001" stroke = "#0000ff" stroke-width = "1" fill = "#0000ff" />
    <circle cx="145" cy = "119" r = "1.384032031250001" stroke = "#0000ff" stroke-width = "1" fill = "#0000ff" />
    <circle cx="145" cy = "122" r = "1.384032031250001" stroke = "#0000ff" stroke-width = "1" fill = "#0000ff" />
    <circle cx="145" cy = "125" r = "1.384032031250001" stroke = "#0000ff" stroke-width = "1" fill = "#0000ff" />
    <circle cx="145" cy = "128" r = "1.384032031250001" stroke = "#0000ff" stroke-width = "1" fill = "#0000ff" />
    <circle cx="145" cy = "131" r = "1.384032031250001" stroke = "#0000ff" stroke-width = "1" fill = "#0000ff" />
    <circle cx="145" cy = "133" r = "1.384032031250001" stroke = "#0000ff" stroke-width = "1" fill = "#0000ff" />
    <circle cx="142" cy = "125" r = "1.384032031250001" stroke = "#0000ff" stroke-width = "1" fill = "#0000ff" />
    <circle cx="140" cy = "125" r = "1.384032031250001" stroke = "#0000ff" stroke-width = "1" fill = "#0000ff" />
    <circle cx="137" cy = "125" r = "1.384032031250001" stroke = "#0000ff" stroke-width = "1" fill = "#0000ff" />
    <circle cx="151" cy = "133" r = "1.384032031250001" stroke = "#0000ff" stroke-width = "1" fill = "#0000ff" />
    <circle cx="151" cy = "131" r = "1.384032031250001" stroke = "#0000ff" stroke-width = "1" fill = "#0000ff" />
    <circle cx="151" cy = "128" r = "1.384032031250001" stroke = "#0000ff" stroke-width = "1" fill = "#0000ff" />
    <circle cx="151" cy = "125" r = "1.384032031250001" stroke = "#0000ff" stroke-width = "1" fill = "#0000ff" />
    <circle cx="151" cy = "122" r = "1.384032031250001" stroke = "#0000ff" stroke-width = "1" fill = "#0000ff" />
    <circle cx="151" cy = "119" r = "1.384032031250001" stroke = "#0000ff" stroke-width = "1" fill = "#0000ff" />
    <circle cx="151" cy = "117" r = "1.384032031250001" stroke = "#0000ff" stroke-width = "1" fill = "#0000ff" />
    <circle cx="153" cy = "119" r = "1.384032031250001" stroke = "#0000ff" stroke-width = "1" fill = "#0000ff" />
    <circle cx="156" cy = "122" r = "1.384032031250001" stroke = "#0000ff" stroke-width = "1" fill = "#0000ff" />
    <circle cx="156" cy = "125" r = "1.384032031250001" stroke = "#0000ff" stroke-width = "1" fill = "#0000ff" />
    <circle cx="159" cy = "119" r = "1.384032031250001" stroke = "#0000ff" stroke-width = "1" fill = "#0000ff" />
    <circle cx="162" cy = "117" r = "1.384032031250001" stroke = "#0000ff" stroke-width = "1" fill = "#0000ff" />
    <circle cx="162" cy = "119" r = "1.384032031250001" stroke = "#0000ff" stroke-width = "1" fill = "#0000ff" />
    <circle cx="162" cy = "122" r = "1.384032031250001" stroke = "#0000ff" stroke-width = "1" fill = "#0000ff" />
    <circle cx="162" cy = "125" r = "1.384032031250001" stroke = "#0000ff" stroke-width = "1" fill = "#0000ff" />
    <circle cx="162" cy = "128" r = "1.384032031250001" stroke = "#0000ff" stroke-width = "1" fill = "#0000ff" />
    <circle cx="162" cy = "131" r = "1.384032031250001" stroke = "#0000ff" stroke-width = "1" fill = "#0000ff" />
    <circle cx="162" cy = "133" r = "1.384032031250001" stroke = "#0000ff" stroke-width = "1" fill = "#0000ff" />
    <circle cx="184" cy = "117" r = "1.384032031250001" stroke = "#0000ff" stroke-width = "1" fill = "#0000ff" />
    <circle cx="187" cy = "117" r = "1.384032031250001" stroke = "#0000ff" stroke-width = "1" fill = "#0000ff" />
    <circle cx="189" cy = "117" r = "1.384032031250001" stroke = "#0000ff" stroke-width = "1" fill = "#0000ff" />
    <circle cx="192" cy = "117" r = "1.384032031250001" stroke = "#0000ff" stroke-width = "1" fill = "#0000ff" />
    <circle cx="195" cy = "117" r = "1.384032031250001" stroke = "#0000ff" stroke-width = "1" fill = "#0000ff" />
    <circle cx="189" cy = "119" r = "1.384032031250001" stroke = "#0000ff" stroke-width = "1" fill = "#0000ff" />
    <circle cx="189" cy = "122" r = "1.384032031250001" stroke = "#0000ff" stroke-width = "1" fill = "#0000ff" />
    <circle cx="189" cy = "125" r = "1.384032031250001" stroke = "#0000ff" stroke-width = "1" fill = "#0000ff" />
    <circle cx="189" cy = "128" r = "1.384032031250001" stroke = "#0000ff" stroke-width = "1" fill = "#0000ff" />
    <circle cx="189" cy = "131" r = "1.384032031250001" stroke = "#0000ff" stroke-width = "1" fill = "#0000ff" />
    <circle cx="189" cy = "133" r = "1.384032031250001" stroke = "#0000ff" stroke-width = "1" fill = "#0000ff" />
    <circle cx="201" cy = "133" r = "1.384032031250001" stroke = "#0000ff" stroke-width = "1" fill = "#0000ff" />
    <circle cx="201" cy = "131" r = "1.384032031250001" stroke = "#0000ff" stroke-width = "1" fill = "#0000ff" />
    <circle cx="201" cy = "128" r = "1.384032031250001" stroke = "#0000ff" stroke-width = "1" fill = "#0000ff" />
    <circle cx="201" cy = "125" r = "1.384032031250001" stroke = "#0000ff" stroke-width = "1" fill = "#0000ff" />
    <circle cx="201" cy = "122" r = "1.384032031250001" stroke = "#0000ff" stroke-width = "1" fill = "#0000ff" />
    <circle cx="201" cy = "119" r = "1.384032031250001" stroke = "#0000ff" stroke-width = "1" fill = "#0000ff" />
    <circle cx="201" cy = "117" r = "1.384032031250001" stroke = "#0000ff" stroke-width = "1" fill = "#0000ff" />
    <circle cx="203" cy = "125" r = "1.384032031250001" stroke = "#0000ff" stroke-width = "1" fill = "#0000ff" />
    <circle cx="206" cy = "125" r = "1.384032031250001" stroke = "#0000ff" stroke-width = "1" fill = "#0000ff" />
    <circle cx="209" cy = "125" r = "1.384032031250001" stroke = "#0000ff" stroke-width = "1" fill = "#0000ff" />
    <circle cx="212" cy = "125" r = "1.384032031250001" stroke = "#0000ff" stroke-width = "1" fill = "#0000ff" />
    <circle cx="212" cy = "122" r = "1.384032031250001" stroke = "#0000ff" stroke-width = "1" fill = "#0000ff" />
    <circle cx="212" cy = "119" r = "1.384032031250001" stroke = "#0000ff" stroke-width = "1" fill = "#0000ff" />
    <circle cx="212" cy = "117" r = "1.384032031250001" stroke = "#0000ff" stroke-width = "1" fill = "#0000ff" />
    <circle cx="212" cy = "128" r = "1.384032031250001" stroke = "#0000ff" stroke-width = "1" fill = "#0000ff" />
    <circle cx="212" cy = "131" r = "1.384032031250001" stroke = "#0000ff" stroke-width = "1" fill = "#0000ff" />
    <circle cx="212" cy = "133" r = "1.384032031250001" stroke = "#0000ff" stroke-width = "1" fill = "#0000ff" />
    <circle cx="217" cy = "133" r = "1.384032031250001" stroke = "#0000ff" stroke-width = "1" fill = "#0000ff" />
    <circle cx="217" cy = "131" r = "1.384032031250001" stroke = "#0000ff" stroke-width = "1" fill = "#0000ff" />
    <circle cx="217" cy = "128" r = "1.384032031250001" stroke = "#0000ff" stroke-width = "1" fill = "#0000ff" />
    <circle cx="217" cy = "125" r = "1.384032031250001" stroke = "#0000ff" stroke-width = "1" fill = "#0000ff" />
    <circle cx="217" cy = "122" r = "1.384032031250001" stroke = "#0000ff" stroke-width = "1" fill = "#0000ff" />
    <circle cx="217" cy = "119" r = "1.384032031250001" stroke = "#0000ff" stroke-width = "1" fill = "#0000ff" />
    <circle cx="217" cy = "117" r = "1.384032031250001" stroke = "#0000ff" stroke-width = "1" fill = "#0000ff" />
    <circle cx="220" cy = "117" r = "1.384032031250001" stroke = "#0000ff" stroke-width = "1" fill = "#0000ff" />
    <circle cx="223" cy = "117" r = "1.384032031250001" stroke = "#0000ff" stroke-width = "1" fill = "#0000ff" />
    <circle cx="225" cy = "117" r = "1.384032031250001" stroke = "#0000ff" stroke-width = "1" fill = "#0000ff" />
    <circle cx="228" cy = "117" r = "1.384032031250001" stroke = "#0000ff" stroke-width = "1" fill = "#0000ff" />
    <circle cx="223" cy = "125" r = "1.384032031250001" stroke = "#0000ff" stroke-width = "1" fill = "#0000ff" />
    <circle cx="220" cy = "125" r = "1.384032031250001" stroke = "#0000ff" stroke-width = "1" fill = "#0000ff" />
    <circle cx="220" cy = "133" r = "1.384032031250001" stroke = "#0000ff" stroke-width = "1" fill = "#0000ff" />
    <circle cx="223" cy = "133" r = "1.384032031250001" stroke = "#0000ff" stroke-width = "1" fill = "#0000ff" />
    <circle cx="225" cy = "133" r = "1.384032031250001" stroke = "#0000ff" stroke-width = "1" fill = "#0000ff" />
    <circle cx="228" cy = "133" r = "1.384032031250001" stroke = "#0000ff" stroke-width = "1" fill = "#0000ff" />
    <circle cx="250" cy = "131" r = "1.384032031250001" stroke = "#0000ff" stroke-width = "1" fill = "#0000ff" />
    <circle cx="250" cy = "128" r = "1.384032031250001" stroke = "#0000ff" stroke-width = "1" fill = "#0000ff" />
    <circle cx="250" cy = "125" r = "1.384032031250001" stroke = "#0000ff" stroke-width = "1" fill = "#0000ff" />
    <circle cx="250" cy = "122" r = "1.384032031250001" stroke = "#0000ff" stroke-width = "1" fill = "#0000ff" />
    <circle cx="250" cy = "119" r = "1.384032031250001" stroke = "#0000ff" stroke-width = "1" fill = "#0000ff" />
    <circle cx="250" cy = "117" r = "1.384032031250001" stroke = "#0000ff" stroke-width = "1" fill = "#0000ff" />
    <circle cx="253" cy = "133" r = "1.384032031250001" stroke = "#0000ff" stroke-width = "1" fill = "#0000ff" />
    <circle cx="256" cy = "133" r = "1.384032031250001" stroke = "#0000ff" stroke-width = "1" fill = "#0000ff" />
    <circle cx="259" cy = "133" r = "1.384032031250001" stroke = "#0000ff" stroke-width = "1" fill = "#0000ff" />
    <circle cx="261" cy = "131" r = "1.384032031250001" stroke = "#0000ff" stroke-width = "1" fill = "#0000ff" />
    <circle cx="261" cy = "128" r = "1.384032031250001" stroke = "#0000ff" stroke-width = "1" fill = "#0000ff" />
    <circle cx="261" cy = "125" r = "1.384032031250001" stroke = "#0000ff" stroke-width = "1" fill = "#0000ff" />
    <circle cx="261" cy = "122" r = "1.384032031250001" stroke = "#0000ff" stroke-width = "1" fill = "#0000ff" />
    <circle cx="261" cy = "119" r = "1.384032031250001" stroke = "#0000ff" stroke-width = "1" fill = "#0000ff" />
    <circle cx="261" cy = "117" r = "1.384032031250001" stroke = "#0000ff" stroke-width = "1" fill = "#0000ff" />
    <circle cx="267" cy = "133" r = "1.384032031250001" stroke = "#0000ff" stroke-width = "1" fill = "#0000ff" />
    <circle cx="267" cy = "131" r = "1.384032031250001" stroke = "#0000ff" stroke-width = "1" fill = "#0000ff" />
    <circle cx="267" cy = "128" r = "1.384032031250001" stroke = "#0000ff" stroke-width = "1" fill = "#0000ff" />
    <circle cx="267" cy = "125" r = "1.384032031250001" stroke = "#0000ff" stroke-width = "1" fill = "#0000ff" />
    <circle cx="267" cy = "122" r = "1.384032031250001" stroke = "#0000ff" stroke-width = "1" fill = "#0000ff" />
    <circle cx="267" cy = "119" r = "1.384032031250001" stroke = "#0000ff" stroke-width = "1" fill = "#0000ff" />
    <circle cx="267" cy = "117" r = "1.384032031250001" stroke = "#0000ff" stroke-width = "1" fill = "#0000ff" />
    <circle cx="270" cy = "122" r = "1.384032031250001" stroke = "#0000ff" stroke-width = "1" fill = "#0000ff" />
    <circle cx="273" cy = "125" r = "1.384032031250001" stroke = "#0000ff" stroke-width = "1" fill = "#0000ff" />
    <circle cx="275" cy = "128" r = "1.384032031250001" stroke = "#0000ff" stroke-width = "1" fill = "#0000ff" />
    <circle cx="278" cy = "131" r = "1.384032031250001" stroke = "#0000ff" stroke-width = "1" fill = "#0000ff" />
    <circle cx="278" cy = "133" r = "1.384032031250001" stroke = "#0000ff" stroke-width = "1" fill = "#0000ff" />
    <circle cx="278" cy = "128" r = "1.384032031250001" stroke = "#0000ff" stroke-width = "1" fill = "#0000ff" />
    <circle cx="278" cy = "125" r = "1.384032031250001" stroke = "#0000ff" stroke-width = "1" fill = "#0000ff" />
    <circle cx="278" cy = "122" r = "1.384032031250001" stroke = "#0000ff" stroke-width = "1" fill = "#0000ff" />
    <circle cx="278" cy = "119" r = "1.384032031250001" stroke = "#0000ff" stroke-width = "1" fill = "#0000ff" />
    <circle cx="278" cy = "117" r = "1.384032031250001" stroke = "#0000ff" stroke-width = "1" fill = "#0000ff" />
    <circle cx="286" cy = "133" r = "1.384032031250001" stroke = "#0000ff" stroke-width = "1" fill = "#0000ff" />
    <circle cx="289" cy = "133" r = "1.384032031250001" stroke = "#0000ff" stroke-width = "1" fill = "#0000ff" />
    <circle cx="292" cy = "133" r = "1.384032031250001" stroke = "#0000ff" stroke-width = "1" fill = "#0000ff" />
    <circle cx="289" cy = "131" r = "1.384032031250001" stroke = "#0000ff" stroke-width = "1" fill = "#0000ff" />
    <circle cx="289" cy = "128" r = "1.384032031250001" stroke = "#0000ff" stroke-width = "1" fill = "#0000ff" />
    <circle cx="289" cy = "125" r = "1.384032031250001" stroke = "#0000ff" stroke-width = "1" fill = "#0000ff" />
    <circle cx="289" cy = "122" r = "1.384032031250001" stroke = "#0000ff" stroke-width = "1" fill = "#0000ff" />
    <circle cx="289" cy = "119" r = "1.384032031250001" stroke = "#0000ff" stroke-width = "1" fill = "#0000ff" />
    <circle cx="289" cy = "117" r = "1.384032031250001" stroke = "#0000ff" stroke-width = "1" fill = "#0000ff" />
    <circle cx="286" cy = "117" r = "1.384032031250001" stroke = "#0000ff" stroke-width = "1" fill = "#0000ff" />
    <circle cx="292" cy = "117" r = "1.384032031250001" stroke = "#0000ff" stroke-width = "1" fill = "#0000ff" />
    <circle cx="300" cy = "117" r = "1.384032031250001" stroke = "#0000ff" stroke-width = "1" fill = "#0000ff" />
    <circle cx="303" cy = "117" r = "1.384032031250001" stroke = "#0000ff" stroke-width = "1" fill = "#0000ff" />
    <circle cx="306" cy = "117" r = "1.384032031250001" stroke = "#0000ff" stroke-width = "1" fill = "#0000ff" />
    <circle cx="308" cy = "117" r = "1.384032031250001" stroke = "#0000ff" stroke-width = "1" fill = "#0000ff" />
    <circle cx="311" cy = "117" r = "1.384032031250001" stroke = "#0000ff" stroke-width = "1" fill = "#0000ff" />
    <circle cx="306" cy = "119" r = "1.384032031250001" stroke = "#0000ff" stroke-width = "1" fill = "#0000ff" />
    <circle cx="306" cy = "122" r = "1.384032031250001" stroke = "#0000ff" stroke-width = "1" fill = "#0000ff" />
    <circle cx="306" cy = "125" r = "1.384032031250001" stroke = "#0000ff" stroke-width = "1" fill = "#0000ff" />
    <circle cx="306" cy = "128" r = "1.384032031250001" stroke = "#0000ff" stroke-width = "1" fill = "#0000ff" />
    <circle cx="306" cy = "131" r = "1.384032031250001" stroke = "#0000ff" stroke-width = "1" fill = "#0000ff" />
    <circle cx="306" cy = "133" r = "1.384032031250001" stroke = "#0000ff" stroke-width = "1" fill = "#0000ff" />
</svg>