<svg width="600" height="400" viewbox = "0 0 600 400"  xmlns="http://www.w3.org/2000/svg">
<!--<json>{
  "glyph": "0330,0336,0330,0330,0332,0332,0332,0321,01221,01072,01316,01336,01313,01336,01220,01220,01220,01220,01220,01337,01342,0331,0331,0332,0332,0332,0332,0332,0332,0332,0332,0332,0332,0332,0332,01336,01220,01220,01220,01220,01333,01337,01342,0331,0332,0332,0332,0332,0332,0332,0332,0332,0331,01336,01337,01316,01337,01313,0336,0333,0336,0330,0330,0341,",
  "x0": 183.64999830985187,
  "y0": 302.91391407499987,
  "unit": 80.52550000000005,
  "width": 600,
  "height": 400,
  "style": {
    "color0": "black",
    "fill0": "black",
    "line0": 1,
    "color1": "black",
    "fill1": "black",
    "line1": 5,
    "color2": "red",
    "fill2": "red",
    "line2": 1,
    "color3": "#FF7900",
    "fill3": "#FF7900",
    "line3": 1,
    "color4": "yellow",
    "fill4": "yellow",
    "line4": 1,
    "color5": "green",
    "fill5": "green",
    "line5": 1,
    "color6": "blue",
    "fill6": "blue",
    "line6": 1,
    "color7": "purple",
    "fill7": "purple",
    "line7": 1
  },
  "shapes": [
    "0220:0333,0342,",
    "0221:0316,0336,0313,0336,0220,0220,0220,0220,0220,0337,0342,0336,0220,0220,0220,0220,0333,0337,0342,0336,0337,0316,0337,0313,",
    "0222:0333,0342,0336,0332,0342,0336,0332,0342,0333,0333,0342,0336,0333,0342,0332,0332,0342,0332,0332,0342,0332,0332,0342,0332,0337,0337,0337,0333,",
    "0223:0222,0222,0222,0222,0222,0222,0334,0222,0334,0221,0221,0221,0221,0221,0221,0334,0221,0334,",
    "0224:0362,0203,0335,0203,0203,0203,0203,0203,0203,0335,0203,0335,0203,0203,0203,0203,0203,0203,0354,0335,",
    "0225:0223,0322,0224,",
    "01220:0333,0200,0332,0336,0220,0333,0337,",
    "01221:0221,0200,",
    "01222:0222,0200,",
    "01223:0333,0200,0332,0336,0330,0336,0336,0331,0333,0330,0223,0331,0331,0331,0331,0332,0337,0337,0337,0333,",
    "01224:0333,0200,0332,0336,0330,0336,0336,0331,0333,0330,0224,0332,0337,0337,0331,0337,0333,",
    "01225:0333,0200,",
    "01226:0333,0200,",
    "01227:0333,0200,",
    "01230:0333,0200,",
    "01231:0333,0200,",
    "01232:0333,0200,",
    "01233:0333,0200,",
    "01234:0333,0200,",
    "01235:0333,0200,",
    "01236:0333,0200,",
    "01237:0333,0200,",
    "0240:0220,0336,0331,0333,0336,0321,0335,0342,0335,0335,0342,0335,0330,0330,0332,0332,0337,0337,",
    "01240:0333,0200,0336,0330,0332,0210,0240,0211,0333,0331,0337,",
    "0241:0220,0336,0321,0343,0332,0350,0335,0336,0342,0334,0334,0342,0335,0304,0337,0333,0337,",
    "01241:0333,0200,0336,0332,0330,0210,0241,0211,0333,0331,0337,",
    "0242:0220,0321,0336,0343,0333,0336,0350,0335,0342,0334,0334,0342,0335,0337,0304,0332,0337,",
    "01242:0333,0200,0336,0330,0332,0210,0242,0211,0333,0331,0337,",
    "0243:0220,0336,0331,0332,0336,0321,0343,0332,0350,0334,0336,0342,0335,0335,0342,0337,0334,0334,0335,0304,0332,0330,0330,0337,0337,0333,",
    "01243:0333,0200,0336,0330,0332,0210,0243,0211,0333,0331,0337,",
    "0244:0220,0336,0331,0333,0336,0321,0343,0333,0350,0336,0335,0342,0334,0334,0342,0335,0337,0304,0333,0330,0330,0337,0337,0332,",
    "01244:0333,0200,0336,0330,0332,0210,0244,0211,0333,0331,0337,",
    "0245:0210,0332,0332,0362,0335,0203,0203,0203,0203,0334,0203,0363,0332,0332,0331,0211,",
    "01245:0333,0200,0336,0330,0332,0336,0245,0337,0333,0331,0337,",
    "0246:0210,0332,0332,0335,0306,0336,0330,0335,0335,0335,0321,0362,0203,0335,0335,0203,0364,0331,0350,0335,0337,0366,0333,0333,0333,0333,0334,0334,0334,0334,0367,0335,0336,0342,0334,0334,0342,0330,0330,0330,0330,0335,0335,0335,0304,0337,0211,",
    "01246:0333,0200,0336,0330,0332,0336,0246,",
    "0247:0330,0332,0336,0332,0336,0221,0333,0333,0333,0222,0333,0333,0333,0223,0333,0333,0333,0225,0333,0331,0331,0331,0332,0332,0332,0332,0332,0332,0332,0332,0332,0332,0332,0332,0333,0333,0226,0331,0331,0331,0333,0333,0333,0333,0333,0333,0333,0333,0333,0333,0333,0333,0333,0330,0333,0330,0330,0333,0330,0331,0332,0332,0332,0332,0332,0332,0332,0332,0332,0332,0332,0332,0227,0333,0333,0333,0230,0333,0331,0331,0331,0331,0332,0332,0332,0330,0332,0332,0332,0332,0332,0332,0333,0333,0231,0333,0333,0333,0232,0331,0333,0330,0333,0333,0233,0333,0333,0333,0234,0330,0330,0332,0330,0332,0332,0337,0337,",
    "01247:0333,0200,0336,0330,0332,0220,0336,0247,0337,0331,0333,0337,"
  ]
}</json>-->    <line x1="67" y1="142" x2="67" y2="138" style="stroke:#000000;stroke-width:5" />
    <line x1="71" y1="142" x2="71" y2="138" style="stroke:#000000;stroke-width:5" />
    <line x1="75" y1="142" x2="75" y2="138" style="stroke:#000000;stroke-width:5" />
    <line x1="79" y1="142" x2="79" y2="138" style="stroke:#000000;stroke-width:5" />
    <line x1="83" y1="142" x2="83" y2="138" style="stroke:#000000;stroke-width:5" />
    <line x1="83" y1="142" x2="83" y2="134" style="stroke:#000000;stroke-width:5" />
    <line x1="87" y1="142" x2="87" y2="138" style="stroke:#000000;stroke-width:5" />
    <line x1="91" y1="142" x2="91" y2="138" style="stroke:#000000;stroke-width:5" />
    <line x1="95" y1="142" x2="95" y2="138" style="stroke:#000000;stroke-width:5" />
    <line x1="99" y1="142" x2="99" y2="138" style="stroke:#000000;stroke-width:5" />
    <line x1="103" y1="142" x2="103" y2="134" style="stroke:#000000;stroke-width:5" />
	<path d = "M103 142 L103 102 L63 102 L63 142 L103 142 Z" stroke = "#000000" stroke-width = "5" fill = "none" />    <circle cx="118" cy = "137" r = "2.5164218750000016" stroke = "#000000" stroke-width = "5" fill = "#000000" />
    <circle cx="113" cy = "137" r = "2.5164218750000016" stroke = "#000000" stroke-width = "5" fill = "#000000" />
    <circle cx="113" cy = "132" r = "2.5164218750000016" stroke = "#000000" stroke-width = "5" fill = "#000000" />
    <circle cx="118" cy = "132" r = "2.5164218750000016" stroke = "#000000" stroke-width = "5" fill = "#000000" />
    <circle cx="118" cy = "122" r = "2.5164218750000016" stroke = "#000000" stroke-width = "5" fill = "#000000" />
    <circle cx="113" cy = "122" r = "2.5164218750000016" stroke = "#000000" stroke-width = "5" fill = "#000000" />
    <circle cx="113" cy = "117" r = "2.5164218750000016" stroke = "#000000" stroke-width = "5" fill = "#000000" />
    <circle cx="118" cy = "117" r = "2.5164218750000016" stroke = "#000000" stroke-width = "5" fill = "#000000" />
	<path d = "M174 142 L174 102 L133 102 L133 142 L174 142 Z" stroke = "#000000" stroke-width = "5" fill = "none" /><circle cx="143" cy = "132" r = "5.032843750000003" stroke = "#000000" stroke-width = "5" fill = "none" />
<circle cx="143" cy = "112" r = "5.032843750000003" stroke = "#000000" stroke-width = "5" fill = "none" />
<circle cx="153" cy = "122" r = "5.032843750000003" stroke = "#000000" stroke-width = "5" fill = "none" />
<circle cx="164" cy = "112" r = "5.032843750000003" stroke = "#000000" stroke-width = "5" fill = "none" />
<circle cx="164" cy = "132" r = "5.032843750000003" stroke = "#000000" stroke-width = "5" fill = "none" />
	<path d = "M214 142 L214 102 L174 102 L174 142 L214 142 Z" stroke = "#000000" stroke-width = "5" fill = "none" />    <line x1="204" y1="122" x2="184" y2="122" style="stroke:#000000;stroke-width:5" />
	<path d = "M254 142 L254 102 L214 102 L214 142 L254 142 Z" stroke = "#000000" stroke-width = "5" fill = "none" />	<path d = "M244 132 L244 122 L234 122 L224 122 L224 132 L234 132 L244 132 Z" stroke = "#000000" stroke-width = "5" fill = "none" />    <line x1="234" y1="132" x2="234" y2="122" style="stroke:#000000;stroke-width:5" />
	<path d = "M294 142 L294 102 L254 102 L254 142 L294 142 Z" stroke = "#000000" stroke-width = "5" fill = "none" />    <line x1="284" y1="122" x2="264" y2="122" style="stroke:#000000;stroke-width:5" />
	<path d = "M335 142 L335 102 L294 102 L294 142 L335 142 Z" stroke = "#000000" stroke-width = "5" fill = "none" />    <line x1="315" y1="142" x2="315" y2="122" style="stroke:#000000;stroke-width:5" />
	<path d = "M375 142 L375 102 L335 102 L335 142 L375 142 Z" stroke = "#000000" stroke-width = "5" fill = "none" />    <line x1="355" y1="142" x2="355" y2="122" style="stroke:#000000;stroke-width:5" />
	<path d = "M415 142 L415 102 L375 102 L375 142 L415 142 Z" stroke = "#000000" stroke-width = "5" fill = "none" />    <line x1="395" y1="142" x2="395" y2="122" style="stroke:#000000;stroke-width:5" />
	<path d = "M455 142 L455 102 L415 102 L415 142 L455 142 Z" stroke = "#000000" stroke-width = "5" fill = "none" />    <line x1="435" y1="142" x2="435" y2="122" style="stroke:#000000;stroke-width:5" />
	<path d = "M496 142 L496 102 L455 102 L455 142 L496 142 Z" stroke = "#000000" stroke-width = "5" fill = "none" />    <line x1="476" y1="142" x2="476" y2="122" style="stroke:#000000;stroke-width:5" />
	<path d = "M536 142 L536 102 L496 102 L496 142 L536 142 Z" stroke = "#000000" stroke-width = "5" fill = "none" />    <line x1="516" y1="122" x2="516" y2="112" style="stroke:#000000;stroke-width:5" />
    <line x1="516" y1="122" x2="506" y2="122" style="stroke:#000000;stroke-width:5" />
    <line x1="516" y1="122" x2="516" y2="132" style="stroke:#000000;stroke-width:5" />
    <line x1="516" y1="122" x2="526" y2="122" style="stroke:#000000;stroke-width:5" />
	<path d = "M576 142 L576 102 L536 102 L536 142 L576 142 Z" stroke = "#000000" stroke-width = "5" fill = "none" />    <line x1="556" y1="122" x2="546" y2="122" style="stroke:#000000;stroke-width:5" />
<circle cx="546" cy = "122" r = "5" stroke = "#000000" stroke-width = "5" fill = "#000000" />
    <line x1="556" y1="122" x2="566" y2="122" style="stroke:#000000;stroke-width:5" />
<circle cx="566" cy = "122" r = "5" stroke = "#000000" stroke-width = "5" fill = "#000000" />
	<path d = "M133 222 L133 182 L93 182 L93 222 L133 222 Z" stroke = "#000000" stroke-width = "5" fill = "none" />    <line x1="123" y1="202" x2="103" y2="202" style="stroke:#000000;stroke-width:5" />
	<path d = "M174 222 L174 182 L133 182 L133 222 L174 222 Z" stroke = "#000000" stroke-width = "5" fill = "none" />    <line x1="153" y1="222" x2="153" y2="202" style="stroke:#000000;stroke-width:5" />
	<path d = "M214 222 L214 182 L174 182 L174 222 L214 222 Z" stroke = "#000000" stroke-width = "5" fill = "none" />    <line x1="194" y1="222" x2="194" y2="202" style="stroke:#000000;stroke-width:5" />
	<path d = "M254 222 L254 182 L214 182 L214 222 L254 222 Z" stroke = "#000000" stroke-width = "5" fill = "none" />    <line x1="234" y1="222" x2="234" y2="202" style="stroke:#000000;stroke-width:5" />
	<path d = "M294 222 L294 182 L254 182 L254 222 L294 222 Z" stroke = "#000000" stroke-width = "5" fill = "none" />    <line x1="274" y1="222" x2="274" y2="202" style="stroke:#000000;stroke-width:5" />
	<path d = "M335 222 L335 182 L294 182 L294 222 L335 222 Z" stroke = "#000000" stroke-width = "5" fill = "none" />	<path d = "M304 207 L304 197 L315 197 L315 192 L320 197 L325 202 L320 207 L315 212 L315 207 L304 207 Z" stroke = "#000000" stroke-width = "5" fill = "none" />	<path d = "M375 222 L375 182 L335 182 L335 222 L375 222 Z" stroke = "#000000" stroke-width = "5" fill = "none" />    <line x1="355" y1="202" x2="355" y2="192" style="stroke:#000000;stroke-width:5" />
    <line x1="355" y1="202" x2="345" y2="202" style="stroke:#000000;stroke-width:5" />
    <line x1="355" y1="202" x2="355" y2="212" style="stroke:#000000;stroke-width:5" />
    <line x1="355" y1="202" x2="365" y2="202" style="stroke:#000000;stroke-width:5" />
	<path d = "M415 222 L415 182 L375 182 L375 222 L415 222 Z" stroke = "#000000" stroke-width = "5" fill = "none" />    <line x1="395" y1="202" x2="385" y2="202" style="stroke:#000000;stroke-width:5" />
<circle cx="385" cy = "202" r = "5" stroke = "#000000" stroke-width = "5" fill = "#000000" />
    <line x1="395" y1="202" x2="405" y2="202" style="stroke:#000000;stroke-width:5" />
<circle cx="405" cy = "202" r = "5" stroke = "#000000" stroke-width = "5" fill = "#000000" />
	<path d = "M133 303 L133 263 L93 263 L93 303 L133 303 Z" stroke = "#000000" stroke-width = "5" fill = "none" />    <line x1="123" y1="283" x2="103" y2="283" style="stroke:#000000;stroke-width:5" />
	<path d = "M174 303 L174 263 L133 263 L133 303 L174 303 Z" stroke = "#000000" stroke-width = "5" fill = "none" />    <line x1="153" y1="283" x2="153" y2="273" style="stroke:#000000;stroke-width:5" />
    <line x1="153" y1="283" x2="143" y2="283" style="stroke:#000000;stroke-width:5" />
    <line x1="153" y1="283" x2="153" y2="293" style="stroke:#000000;stroke-width:5" />
    <line x1="153" y1="283" x2="164" y2="283" style="stroke:#000000;stroke-width:5" />
	<path d = "M214 303 L214 263 L174 263 L174 303 L214 303 Z" stroke = "#000000" stroke-width = "5" fill = "none" /><circle cx="184" cy = "293" r = "5.032843750000004" stroke = "#000000" stroke-width = "5" fill = "none" />
<circle cx="184" cy = "273" r = "5.032843750000004" stroke = "#000000" stroke-width = "5" fill = "none" />
<circle cx="194" cy = "283" r = "5.032843750000004" stroke = "#000000" stroke-width = "5" fill = "none" />
<circle cx="204" cy = "273" r = "5.032843750000004" stroke = "#000000" stroke-width = "5" fill = "none" />
<circle cx="204" cy = "293" r = "5.032843750000004" stroke = "#000000" stroke-width = "5" fill = "none" />
	<path d = "M254 303 L254 263 L214 263 L214 303 L254 303 Z" stroke = "#000000" stroke-width = "5" fill = "none" />    <line x1="234" y1="283" x2="234" y2="273" style="stroke:#000000;stroke-width:5" />
    <line x1="234" y1="283" x2="224" y2="283" style="stroke:#000000;stroke-width:5" />
    <line x1="234" y1="283" x2="234" y2="293" style="stroke:#000000;stroke-width:5" />
    <line x1="234" y1="283" x2="244" y2="283" style="stroke:#000000;stroke-width:5" />
	<path d = "M294 303 L294 263 L254 263 L254 303 L294 303 Z" stroke = "#000000" stroke-width = "5" fill = "none" />	<path d = "M284 293 L284 283 L274 283 L264 283 L264 293 L274 293 L284 293 Z" stroke = "#000000" stroke-width = "5" fill = "none" />    <line x1="274" y1="293" x2="274" y2="283" style="stroke:#000000;stroke-width:5" />
<circle cx="315" cy = "283" r = "10.065687500000008" stroke = "#000000" stroke-width = "5" fill = "none" />
</svg>